<svg xmlns="http://www.w3.org/2000/svg" xmlns:xlink="http://www.w3.org/1999/xlink" contentStyleType="text/css" data-diagram-type="CLASS" height="867px" preserveAspectRatio="none" style="width:2697px;height:867px;background:#F9F9F9;" version="1.1" viewBox="0 0 2697 867" width="2697px" zoomAndPan="magnify"><defs><filter height="300%" id="fa012c4zbm37" width="300%" x="-1" y="-1"><feGaussianBlur result="blurOut" stdDeviation="2"/><feColorMatrix in="blurOut" result="blurOut2" type="matrix" values="0 0 0 0 0 0 0 0 0 0 0 0 0 0 0 0 0 0 .4 0"/><feOffset dx="4" dy="4" in="blurOut2" result="blurOut3"/><feBlend in="SourceGraphic" in2="blurOut3" mode="normal"/></filter></defs><g><rect fill="#F9F9F9" height="867" style="stroke:none;stroke-width:1;" width="2697" x="0" y="0"/><!--cluster winterhavenmc--><g class="cluster" data-entity="winterhavenmc" data-source-line="26" data-uid="ent0002" id="cluster_winterhavenmc"><path d="M13.5,6 L126.1797,6 A11.25,11.25 0 0 1 133.6797,13.5 L140.6797,28.2969 L2675.5,28.2969 A7.5,7.5 0 0 1 2683,35.7969 L2683,845.31 A7.5,7.5 0 0 1 2675.5,852.81 L13.5,852.81 A7.5,7.5 0 0 1 6,845.31 L6,13.5 A7.5,7.5 0 0 1 13.5,6" fill="#ECECEC" filter="url(#fa012c4zbm37)" style="stroke:#000000;stroke-width:1.5;"/><line style="stroke:#000000;stroke-width:1.5;" x1="6" x2="140.6797" y1="28.2969" y2="28.2969"/><text fill="#000000" font-family="sans-serif" font-size="14" font-weight="bold" lengthAdjust="spacing" textLength="121.6797" x="10" y="20.9951">winterhavenmc</text></g><!--cluster deathcompass--><g class="cluster" data-entity="deathcompass" data-source-line="27" data-uid="ent0003" id="cluster_deathcompass"><path d="M37.5,49 L142.7627,49 A11.25,11.25 0 0 1 150.2627,56.5 L157.2627,71.2969 L2651.5,71.2969 A7.5,7.5 0 0 1 2659,78.7969 L2659,821.31 A7.5,7.5 0 0 1 2651.5,828.81 L37.5,828.81 A7.5,7.5 0 0 1 30,821.31 L30,56.5 A7.5,7.5 0 0 1 37.5,49" fill="#D8D8D8" filter="url(#fa012c4zbm37)" style="stroke:#000000;stroke-width:1.5;"/><line style="stroke:#000000;stroke-width:1.5;" x1="30" x2="157.2627" y1="71.2969" y2="71.2969"/><text fill="#000000" font-family="sans-serif" font-size="14" font-weight="bold" lengthAdjust="spacing" textLength="114.2627" x="34" y="63.9951">deathcompass</text></g><!--class Bootstrap--><g class="entity" data-entity="Bootstrap" data-source-line="30" data-uid="ent0004" id="entity_Bootstrap"><rect fill="#ADD8E6" filter="url(#fa012c4zbm37)" height="121.4531" rx="7.5" ry="7.5" style="stroke:#888888;stroke-width:0.5;" width="298.959" x="1254.52" y="84"/><ellipse cx="1365.6347" cy="104.1328" fill="#ADD1B2" rx="11" ry="11" style="stroke:#181818;stroke-width:1;"/><path d="M1368.6035,109.7734 Q1368.0254,110.0703 1367.3847,110.2109 Q1366.7441,110.3672 1366.041,110.3672 Q1363.541,110.3672 1362.2129,108.7266 Q1360.9004,107.0703 1360.9004,103.9453 Q1360.9004,100.8203 1362.2129,99.1641 Q1363.541,97.5078 1366.041,97.5078 Q1366.7441,97.5078 1367.3847,97.6641 Q1368.041,97.8203 1368.6035,98.1172 L1368.6035,100.8359 Q1367.9785,100.2578 1367.3847,99.9922 Q1366.791,99.7109 1366.166,99.7109 Q1364.8222,99.7109 1364.1347,100.7891 Q1363.4472,101.8516 1363.4472,103.9453 Q1363.4472,106.0391 1364.1347,107.1172 Q1364.8222,108.1797 1366.166,108.1797 Q1366.791,108.1797 1367.3847,107.9141 Q1367.9785,107.6328 1368.6035,107.0547 L1368.6035,109.7734 Z " fill="#000000"/><text fill="#000000" font-family="sans-serif" font-size="12" font-style="italic" lengthAdjust="spacing" textLength="72.1934" x="1384.1528" y="100.1387">&#171;controller&#187;</text><text fill="#000000" font-family="'Helvetica'" font-size="14" lengthAdjust="spacing" textLength="68.2295" x="1386.1347" y="115.9639">Bootstrap</text><line style="stroke:#888888;stroke-width:0.5;" x1="1255.52" x2="1552.479" y1="124.2656" y2="124.2656"/><text fill="#000000" font-family="sans-serif" font-size="14" lengthAdjust="spacing" textLength="286.959" x="1260.52" y="141.2607">-connectionProvider: ConnectionProvider</text><text fill="#000000" font-family="sans-serif" font-size="14" lengthAdjust="spacing" textLength="238.7178" x="1260.52" y="157.5576">-pluginController: PluginController</text><line style="stroke:#888888;stroke-width:0.5;" x1="1255.52" x2="1552.479" y1="164.8594" y2="164.8594"/><text fill="#000000" font-family="sans-serif" font-size="14" lengthAdjust="spacing" textLength="87.7803" x="1260.52" y="181.8545">+onEnable()</text><text fill="#000000" font-family="sans-serif" font-size="14" lengthAdjust="spacing" textLength="92.0254" x="1260.52" y="198.1514">+onDisable()</text></g><!--class PluginController--><g class="entity" data-entity="PluginController" data-source-line="37" data-uid="ent0005" id="entity_PluginController"><rect fill="#ADD8E6" filter="url(#fa012c4zbm37)" height="219.2344" rx="7.5" ry="7.5" style="stroke:#888888;stroke-width:0.5;" width="502.0957" x="1152.95" y="265.45"/><ellipse cx="1343.7342" cy="285.5828" fill="#ADD1B2" rx="11" ry="11" style="stroke:#181818;stroke-width:1;"/><path d="M1346.7029,291.2234 Q1346.1248,291.5203 1345.4842,291.6609 Q1344.8436,291.8172 1344.1404,291.8172 Q1341.6404,291.8172 1340.3123,290.1766 Q1338.9998,288.5203 1338.9998,285.3953 Q1338.9998,282.2703 1340.3123,280.6141 Q1341.6404,278.9578 1344.1404,278.9578 Q1344.8436,278.9578 1345.4842,279.1141 Q1346.1404,279.2703 1346.7029,279.5672 L1346.7029,282.2859 Q1346.0779,281.7078 1345.4842,281.4422 Q1344.8904,281.1609 1344.2654,281.1609 Q1342.9217,281.1609 1342.2342,282.2391 Q1341.5467,283.3016 1341.5467,285.3953 Q1341.5467,287.4891 1342.2342,288.5672 Q1342.9217,289.6297 1344.2654,289.6297 Q1344.8904,289.6297 1345.4842,289.3641 Q1346.0779,289.0828 1346.7029,288.5047 L1346.7029,291.2234 Z " fill="#000000"/><text fill="#000000" font-family="sans-serif" font-size="12" font-style="italic" lengthAdjust="spacing" textLength="72.1934" x="1384.1512" y="281.5887">&#171;controller&#187;</text><text fill="#000000" font-family="'Helvetica'" font-size="14" lengthAdjust="spacing" textLength="112.0273" x="1364.2342" y="297.4139">PluginController</text><line style="stroke:#888888;stroke-width:0.5;" x1="1153.95" x2="1654.0457" y1="305.7156" y2="305.7156"/><text fill="#000000" font-family="sans-serif" font-size="14" lengthAdjust="spacing" textLength="285.4619" x="1158.95" y="322.7107">+commandManager: CommandManager</text><text fill="#000000" font-family="sans-serif" font-size="14" lengthAdjust="spacing" textLength="225.5586" x="1158.95" y="339.0076">+datastore: ConnectionProvider</text><text fill="#000000" font-family="sans-serif" font-size="14" lengthAdjust="spacing" textLength="314.0977" x="1158.95" y="355.3045">+deathCompassUtility: DeathCompassUtility</text><text fill="#000000" font-family="sans-serif" font-size="14" lengthAdjust="spacing" textLength="347.2656" x="1158.95" y="371.6014">+inventoryEventListener: InventoryEventListener</text><text fill="#000000" font-family="sans-serif" font-size="14" lengthAdjust="spacing" textLength="244.2002" x="1158.95" y="387.8982">+messageBuilder: MessageBuilder</text><text fill="#000000" font-family="sans-serif" font-size="14" lengthAdjust="spacing" textLength="301.3418" x="1158.95" y="404.1951">+playerEventListener: PlayerEventListener</text><text fill="#000000" font-family="sans-serif" font-size="14" lengthAdjust="spacing" textLength="247.3379" x="1158.95" y="420.492">+soundConfig: SoundConfiguration</text><text fill="#000000" font-family="sans-serif" font-size="14" lengthAdjust="spacing" textLength="223.1182" x="1158.95" y="436.7889">+worldManager: WorldManager</text><line style="stroke:#888888;stroke-width:0.5;" x1="1153.95" x2="1654.0457" y1="444.0906" y2="444.0906"/><text fill="#000000" font-family="sans-serif" font-size="14" lengthAdjust="spacing" textLength="490.0957" x="1158.95" y="461.0857">+startUp(plugin: JavaPlugin, connectionProvider: ConnectionProvider)</text><text fill="#000000" font-family="sans-serif" font-size="14" lengthAdjust="spacing" textLength="92.8525" x="1158.95" y="477.3826">+shutDown()</text></g><!--class CommandManager--><g class="entity" data-entity="CommandManager" data-source-line="51" data-uid="ent0006" id="entity_CommandManager"><rect fill="#E6E6FA" filter="url(#fa012c4zbm37)" height="137.75" rx="7.5" ry="7.5" style="stroke:#888888;stroke-width:0.5;" width="776.5176" x="45.74" y="609.87"/><ellipse cx="363.0881" cy="630.0028" fill="#ADD1B2" rx="11" ry="11" style="stroke:#181818;stroke-width:1;"/><path d="M366.0569,635.6434 Q365.4788,635.9403 364.8381,636.0809 Q364.1975,636.2372 363.4944,636.2372 Q360.9944,636.2372 359.6663,634.5966 Q358.3538,632.9403 358.3538,629.8153 Q358.3538,626.6903 359.6663,625.0341 Q360.9944,623.3778 363.4944,623.3778 Q364.1975,623.3778 364.8381,623.5341 Q365.4944,623.6903 366.0569,623.9872 L366.0569,626.7059 Q365.4319,626.1278 364.8381,625.8622 Q364.2444,625.5809 363.6194,625.5809 Q362.2756,625.5809 361.5881,626.6591 Q360.9006,627.7216 360.9006,629.8153 Q360.9006,631.9091 361.5881,632.9872 Q362.2756,634.0497 363.6194,634.0497 Q364.2444,634.0497 364.8381,633.7841 Q365.4319,633.5028 366.0569,632.9247 L366.0569,635.6434 Z " fill="#000000"/><text fill="#000000" font-family="sans-serif" font-size="12" font-style="italic" lengthAdjust="spacing" textLength="68.6191" x="415.9392" y="626.0087">&#171;manager&#187;</text><text fill="#000000" font-family="'Helvetica'" font-size="14" lengthAdjust="spacing" textLength="133.3213" x="383.5881" y="641.8339">CommandManager</text><line style="stroke:#888888;stroke-width:0.5;" x1="46.74" x2="821.2576" y1="650.1356" y2="650.1356"/><text fill="#000000" font-family="sans-serif" font-size="14" lengthAdjust="spacing" textLength="231.1504" x="51.74" y="667.1307">-ctx: CommandContextContainer</text><text fill="#000000" font-family="sans-serif" font-size="14" lengthAdjust="spacing" textLength="321.5557" x="51.74" y="683.4276">-subcommandRegistry: SubcommandRegistry</text><line style="stroke:#888888;stroke-width:0.5;" x1="46.74" x2="821.2576" y1="690.7294" y2="690.7294"/><text fill="#000000" font-family="sans-serif" font-size="14" lengthAdjust="spacing" textLength="672.0273" x="51.74" y="707.7245">-getMatchingSubcommandNames(sender: CommandSender, matchString: String): List&lt;String&gt;</text><text fill="#000000" font-family="sans-serif" font-size="14" lengthAdjust="spacing" textLength="710.8691" x="51.74" y="724.0214">+onCommand(sender: CommandSender, command: Command, label: String, args: String[]): boolean</text><text fill="#000000" font-family="sans-serif" font-size="14" lengthAdjust="spacing" textLength="764.5176" x="51.74" y="740.3182">+onTabComplete(sender: CommandSender, command: Command, alias: String, args: String[]): List&lt;String&gt;</text></g><!--class ConnectionProvider--><g class="entity" data-entity="ConnectionProvider" data-source-line="60" data-uid="ent0007" id="entity_ConnectionProvider"><rect fill="#D5E8D4" filter="url(#fa012c4zbm37)" height="105.1563" rx="7.5" ry="7.5" style="stroke:#888888;stroke-width:0.5;" width="327.8818" x="857.06" y="626.17"/><ellipse cx="948.0463" cy="646.3028" fill="#B4A7E5" rx="11" ry="11" style="stroke:#181818;stroke-width:1;"/><path d="M943.9682,642.0684 L943.9682,639.9122 L951.3588,639.9122 L951.3588,642.0684 L948.8901,642.0684 L948.8901,650.1466 L951.3588,650.1466 L951.3588,652.3028 L943.9682,652.3028 L943.9682,650.1466 L946.437,650.1466 L946.437,642.0684 L943.9682,642.0684 Z " fill="#000000"/><text fill="#000000" font-family="sans-serif" font-size="12" font-style="italic" lengthAdjust="spacing" textLength="75.627" x="999.4374" y="642.3087">&#171;repository&#187;</text><text fill="#000000" font-family="'Helvetica'" font-size="14" font-style="italic" lengthAdjust="spacing" textLength="137.4092" x="968.5463" y="658.1339">ConnectionProvider</text><line style="stroke:#888888;stroke-width:0.5;" x1="858.06" x2="1183.9418" y1="666.4356" y2="666.4356"/><line style="stroke:#888888;stroke-width:0.5;" x1="858.06" x2="1183.9418" y1="674.4356" y2="674.4356"/><text fill="#000000" font-family="sans-serif" font-size="14" lengthAdjust="spacing" textLength="58.7139" x="863.06" y="691.4307">+close()</text><text fill="#000000" font-family="sans-serif" font-size="14" lengthAdjust="spacing" textLength="225.0391" x="863.06" y="707.7276">+connect(): ConnectionProvider</text><text fill="#000000" font-family="sans-serif" font-size="14" lengthAdjust="spacing" textLength="315.8818" x="863.06" y="724.0245">+deathLocations(): DeathLocationRepository</text></g><!--class DeathCompassUtility--><g class="entity" data-entity="DeathCompassUtility" data-source-line="67" data-uid="ent0008" id="entity_DeathCompassUtility"><rect fill="#E6F0FF" filter="url(#fa012c4zbm37)" height="105.1563" rx="7.5" ry="7.5" style="stroke:#888888;stroke-width:0.5;" width="367.5303" x="1220.23" y="626.17"/><ellipse cx="1325.9717" cy="646.3028" fill="#ADD1B2" rx="11" ry="11" style="stroke:#181818;stroke-width:1;"/><path d="M1328.9404,651.9434 Q1328.3623,652.2403 1327.7217,652.3809 Q1327.0811,652.5372 1326.3779,652.5372 Q1323.8779,652.5372 1322.5498,650.8966 Q1321.2373,649.2403 1321.2373,646.1153 Q1321.2373,642.9903 1322.5498,641.3341 Q1323.8779,639.6778 1326.3779,639.6778 Q1327.0811,639.6778 1327.7217,639.8341 Q1328.3779,639.9903 1328.9404,640.2872 L1328.9404,643.0059 Q1328.3154,642.4278 1327.7217,642.1622 Q1327.1279,641.8809 1326.5029,641.8809 Q1325.1592,641.8809 1324.4717,642.9591 Q1323.7842,644.0216 1323.7842,646.1153 Q1323.7842,648.2091 1324.4717,649.2872 Q1325.1592,650.3497 1326.5029,650.3497 Q1327.1279,650.3497 1327.7217,650.0841 Q1328.3154,649.8028 1328.9404,649.2247 L1328.9404,651.9434 Z " fill="#000000"/><text fill="#000000" font-family="sans-serif" font-size="12" font-style="italic" lengthAdjust="spacing" textLength="48.8027" x="1395.8438" y="642.3087">&#171;utility&#187;</text><text fill="#000000" font-family="'Helvetica'" font-size="14" lengthAdjust="spacing" textLength="147.5469" x="1346.4717" y="658.1339">DeathCompassUtility</text><line style="stroke:#888888;stroke-width:0.5;" x1="1221.23" x2="1586.7603" y1="666.4356" y2="666.4356"/><text fill="#000000" font-family="sans-serif" font-size="14" lengthAdjust="spacing" textLength="169.5449" x="1226.23" y="683.4307">-plugin: PluginController</text><line style="stroke:#888888;stroke-width:0.5;" x1="1221.23" x2="1586.7603" y1="690.7325" y2="690.7325"/><text fill="#000000" font-family="sans-serif" font-size="14" lengthAdjust="spacing" textLength="179.0674" x="1226.23" y="707.7276">+createItem(): ItemStack</text><text fill="#000000" font-family="sans-serif" font-size="14" lengthAdjust="spacing" textLength="355.5303" x="1226.23" y="724.0245">+isDeathCompass(itemStack: ItemStack): boolean</text></g><!--class InventoryEventListener--><g class="entity" data-entity="InventoryEventListener" data-source-line="74" data-uid="ent0009" id="entity_InventoryEventListener"><rect fill="#FFF5CC" filter="url(#fa012c4zbm37)" height="137.75" rx="7.5" ry="7.5" style="stroke:#888888;stroke-width:0.5;" width="602.6387" x="1622.68" y="609.87"/><ellipse cx="1838.0975" cy="630.0028" fill="#ADD1B2" rx="11" ry="11" style="stroke:#181818;stroke-width:1;"/><path d="M1841.0662,635.6434 Q1840.4881,635.9403 1839.8475,636.0809 Q1839.2069,636.2372 1838.5037,636.2372 Q1836.0037,636.2372 1834.6756,634.5966 Q1833.3631,632.9403 1833.3631,629.8153 Q1833.3631,626.6903 1834.6756,625.0341 Q1836.0037,623.3778 1838.5037,623.3778 Q1839.2069,623.3778 1839.8475,623.5341 Q1840.5037,623.6903 1841.0662,623.9872 L1841.0662,626.7059 Q1840.4412,626.1278 1839.8475,625.8622 Q1839.2537,625.5809 1838.6287,625.5809 Q1837.285,625.5809 1836.5975,626.6591 Q1835.91,627.7216 1835.91,629.8153 Q1835.91,631.9091 1836.5975,632.9872 Q1837.285,634.0497 1838.6287,634.0497 Q1839.2537,634.0497 1839.8475,633.7841 Q1840.4412,633.5028 1841.0662,632.9247 L1841.0662,635.6434 Z " fill="#000000"/><text fill="#000000" font-family="sans-serif" font-size="12" font-style="italic" lengthAdjust="spacing" textLength="59.6133" x="1910.4427" y="626.0087">&#171;listener&#187;</text><text fill="#000000" font-family="'Helvetica'" font-size="14" lengthAdjust="spacing" textLength="163.3037" x="1858.5975" y="641.8339">InventoryEventListener</text><line style="stroke:#888888;stroke-width:0.5;" x1="1623.68" x2="2224.3187" y1="650.1356" y2="650.1356"/><text fill="#000000" font-family="sans-serif" font-size="14" lengthAdjust="spacing" textLength="215.5234" x="1628.68" y="667.1307">-ctx: ListenerContextContainer</text><line style="stroke:#888888;stroke-width:0.5;" x1="1623.68" x2="2224.3187" y1="674.4325" y2="674.4325"/><text fill="#000000" font-family="sans-serif" font-size="14" lengthAdjust="spacing" textLength="590.6387" x="1628.68" y="691.4276">-cancelInventoryTransfer(event: Cancellable, player: HumanEntity, item: ItemStack)</text><text fill="#000000" font-family="sans-serif" font-size="14" lengthAdjust="spacing" textLength="329.6973" x="1628.68" y="707.7245">+onInventoryClick(event: InventoryClickEvent)</text><text fill="#000000" font-family="sans-serif" font-size="14" lengthAdjust="spacing" textLength="330.9824" x="1628.68" y="724.0214">+onInventoryDrag(event: InventoryDragEvent)</text><text fill="#000000" font-family="sans-serif" font-size="14" lengthAdjust="spacing" textLength="401.8027" x="1628.68" y="740.3182">+onInventoryMoveItem(event: InventoryMoveItemEvent)</text></g><!--class PlayerEventListener--><g class="entity" data-entity="PlayerEventListener" data-source-line="82" data-uid="ent0010" id="entity_PlayerEventListener"><rect fill="#FFF5CC" filter="url(#fa012c4zbm37)" height="268.125" rx="7.5" ry="7.5" style="stroke:#888888;stroke-width:0.5;" width="382.7744" x="2260.61" y="544.69"/><ellipse cx="2377.7472" cy="564.8228" fill="#ADD1B2" rx="11" ry="11" style="stroke:#181818;stroke-width:1;"/><path d="M2380.716,570.4634 Q2380.1378,570.7603 2379.4972,570.9009 Q2378.8566,571.0572 2378.1535,571.0572 Q2375.6535,571.0572 2374.3253,569.4166 Q2373.0128,567.7603 2373.0128,564.6353 Q2373.0128,561.5103 2374.3253,559.8541 Q2375.6535,558.1978 2378.1535,558.1978 Q2378.8566,558.1978 2379.4972,558.3541 Q2380.1535,558.5103 2380.716,558.8072 L2380.716,561.5259 Q2380.091,560.9478 2379.4972,560.6822 Q2378.9035,560.4009 2378.2785,560.4009 Q2376.9347,560.4009 2376.2472,561.4791 Q2375.5597,562.5416 2375.5597,564.6353 Q2375.5597,566.7291 2376.2472,567.8072 Q2376.9347,568.8697 2378.2785,568.8697 Q2378.9035,568.8697 2379.4972,568.6041 Q2380.091,568.3228 2380.716,567.7447 L2380.716,570.4634 Z " fill="#000000"/><text fill="#000000" font-family="sans-serif" font-size="12" font-style="italic" lengthAdjust="spacing" textLength="59.6133" x="2438.4406" y="560.8287">&#171;listener&#187;</text><text fill="#000000" font-family="'Helvetica'" font-size="14" lengthAdjust="spacing" textLength="140" x="2398.2472" y="576.6539">PlayerEventListener</text><line style="stroke:#888888;stroke-width:0.5;" x1="2261.61" x2="2642.3844" y1="584.9556" y2="584.9556"/><text fill="#000000" font-family="sans-serif" font-size="14" lengthAdjust="spacing" textLength="215.5234" x="2266.61" y="601.9507">-ctx: ListenerContextContainer</text><text fill="#000000" font-family="sans-serif" font-size="14" lengthAdjust="spacing" textLength="267.7773" x="2266.61" y="618.2476">-deathTriggeredRespawn: Set&lt;UUID&gt;</text><text fill="#000000" font-family="sans-serif" font-size="14" lengthAdjust="spacing" textLength="216.9863" x="2266.61" y="634.5445">-localeProvider: LocaleProvider</text><line style="stroke:#888888;stroke-width:0.5;" x1="2261.61" x2="2642.3844" y1="641.8462" y2="641.8462"/><text fill="#000000" font-family="sans-serif" font-size="14" lengthAdjust="spacing" textLength="306.127" x="2266.61" y="658.8414">-getDeathLocation(player: Player): Location</text><text fill="#000000" font-family="sans-serif" font-size="14" lengthAdjust="spacing" textLength="328.5557" x="2266.61" y="675.1382">-giveDeathCompass(player: Player): ItemStack</text><text fill="#000000" font-family="sans-serif" font-size="14" lengthAdjust="spacing" textLength="370.7744" x="2266.61" y="691.4351">+onChangeWorld(event: PlayerChangedWorldEvent)</text><text fill="#000000" font-family="sans-serif" font-size="14" lengthAdjust="spacing" textLength="304.5205" x="2266.61" y="707.732">+onItemDrop(event: PlayerDropItemEvent)</text><text fill="#000000" font-family="sans-serif" font-size="14" lengthAdjust="spacing" textLength="301.041" x="2266.61" y="724.0289">+onPlayerDeath(event: PlayerDeathEvent)</text><text fill="#000000" font-family="sans-serif" font-size="14" lengthAdjust="spacing" textLength="325.623" x="2266.61" y="740.3257">+onPlayerInteract(event: PlayerInteractEvent)</text><text fill="#000000" font-family="sans-serif" font-size="14" lengthAdjust="spacing" textLength="267.2852" x="2266.61" y="756.6226">+onPlayerJoin(event: PlayerJoinEvent)</text><text fill="#000000" font-family="sans-serif" font-size="14" lengthAdjust="spacing" textLength="343.2188" x="2266.61" y="772.9195">+onPlayerRespawn(event: PlayerRespawnEvent)</text><text fill="#000000" font-family="sans-serif" font-size="14" lengthAdjust="spacing" textLength="334.3867" x="2266.61" y="789.2164">-removeDeathCompasses(inventory: Inventory)</text><text fill="#000000" font-family="sans-serif" font-size="14" lengthAdjust="spacing" textLength="300.7266" x="2266.61" y="805.5132">-resetDeathCompassTarget(player: Player)</text></g><!--link Bootstrap to PluginController--><g class="link" data-entity-1="Bootstrap" data-entity-2="PluginController" data-source-line="101" data-uid="lnk11" id="link_Bootstrap_PluginController"><path codeLine="101" d="M1404,205.72 C1404,223.95 1404,238.59 1404,259.01" fill="none" id="Bootstrap-to-PluginController" style="stroke:#444444;stroke-width:1.2;"/><polygon fill="#444444" points="1404,265.01,1408,256.01,1404,260.01,1400,256.01,1404,265.01" style="stroke:#444444;stroke-width:1.2;"/></g><!--link PluginController to CommandManager--><g class="link" data-entity-1="PluginController" data-entity-2="CommandManager" data-source-line="102" data-uid="lnk12" id="link_PluginController_CommandManager"><path codeLine="102" d="M1152.64,449.68 C1054.87,478.72 942.04,512.72 840,544.69 C774.44,565.23 708.8704,586.4477 644.6004,607.5577" fill="none" id="PluginController-to-CommandManager" style="stroke:#444444;stroke-width:1.2;"/><polygon fill="#444444" points="638.9,609.43,648.6988,610.4218,643.6503,607.8697,646.2023,602.8212,638.9,609.43" style="stroke:#444444;stroke-width:1.2;"/></g><!--link PluginController to ConnectionProvider--><g class="link" data-entity-1="PluginController" data-entity-2="ConnectionProvider" data-source-line="103" data-uid="lnk13" id="link_PluginController_ConnectionProvider"><path codeLine="103" d="M1265.73,484.98 C1204.77,533 1140.7034,583.4573 1091.6234,622.1173" fill="none" id="PluginController-to-ConnectionProvider" style="stroke:#444444;stroke-width:1.2;"/><polygon fill="#444444" points="1086.91,625.83,1096.4552,623.4032,1090.8378,622.7361,1091.5049,617.1187,1086.91,625.83" style="stroke:#444444;stroke-width:1.2;"/></g><!--link PluginController to DeathCompassUtility--><g class="link" data-entity-1="PluginController" data-entity-2="DeathCompassUtility" data-source-line="104" data-uid="lnk14" id="link_PluginController_DeathCompassUtility"><path codeLine="104" d="M1404,484.98 C1404,533.08 1404,581.36 1404,620.04" fill="none" id="PluginController-to-DeathCompassUtility" style="stroke:#444444;stroke-width:1.2;"/><polygon fill="#444444" points="1404,626.04,1408,617.04,1404,621.04,1400,617.04,1404,626.04" style="stroke:#444444;stroke-width:1.2;"/></g><!--link PluginController to InventoryEventListener--><g class="link" data-entity-1="PluginController" data-entity-2="InventoryEventListener" data-source-line="105" data-uid="lnk15" id="link_PluginController_InventoryEventListener"><path codeLine="105" d="M1591.73,484.98 C1663.44,526.58 1737.9301,569.7993 1801.2801,606.5493" fill="none" id="PluginController-to-InventoryEventListener" style="stroke:#444444;stroke-width:1.2;"/><polygon fill="#444444" points="1806.47,609.56,1800.6923,601.5839,1802.1451,607.0511,1796.6779,608.5039,1806.47,609.56" style="stroke:#444444;stroke-width:1.2;"/></g><!--link PluginController to PlayerEventListener--><g class="link" data-entity-1="PluginController" data-entity-2="PlayerEventListener" data-source-line="106" data-uid="lnk16" id="link_PluginController_PlayerEventListener"><path codeLine="106" d="M1655.53,402.04 C1825.93,425.51 2053.66,468.48 2243,544.69 C2248.79,547.01 2249.1236,547.0364 2254.9136,549.6564" fill="none" id="PluginController-to-PlayerEventListener" style="stroke:#444444;stroke-width:1.2;"/><polygon fill="#444444" points="2260.38,552.13,2253.8295,544.7754,2255.8247,550.0687,2250.5314,552.0639,2260.38,552.13" style="stroke:#444444;stroke-width:1.2;"/></g><!--SRC=[fLPjJoCt4FwUNs61L88kgOxgg6W4I24la6lW8X9KLLK_E9jXO-7OAzkR74NttplsRdQztWr5QbRHokDdnkEPny_wX5nTNP7RwRUR_fJC5tzE9m-trjJIBqmaLD4DMTBe9LOo5Qk1v5AHu-VVxECXz9gkv8w9c1YLWZUHUoa1YfoTUnDzfUGk3_V5_SB9nPf5BmAq9cS__n9EZgKmS_OFaBCpRoh1H6aC2sOub0W_SiIfrdRgWMw07Dq1tu9X4JqACNrZ55kc1YQH52xEvn12tbg4t0IrsQsP0MkNQWKgt-25-xL-j5edH1jG8Crh0feyuwII7BfBgc558el68dvaeSjBpCkWCmTrVKscB5wR6vv24t931LR5mUWM1ERLXE8CKnCETZmUZyy7WoPKQXXdvjM2Hh-EFu_7JI05YTJCIELmm_FHnV1BjdlBjLb_y7l_TZHtBCjRHewGFLYPjKrm4nsHOuZiuxPUO5P0pJgIcmIBWf3LXNqGWXX2JaYtsyMwIwEDeWdvYPGLibCEbDMp10LbV7CWGhhMLq1ac1Gp9RSCQzOZWvgjW2SyZPaO5B5wP1POSkWd8iL8q2M7zgbd6ZBjsNwql6J3G8To_eGvRx3Lg_kitJPVVrp0LjHGZSs1TtQ4A5lhGLRhfwpfFJAi6mi79h1rjkSZ-vxcREgHIQEzSDlW2SVqRbB6NP7lA-C2bd3w2Ye8FQiR2mUTyL4yixX7vkKWLTJkjy3jfE9boVxmHcKeGvLvIjfPatlaAztIh2kT3_AaRBLUfsOeTwBQwOoxURzqmDPg6ub_dZs-ckz5morNuBknByg4nrATBdEEF4AC1LFOqddDLi1ZCFVKH6kKf19bXLEtjPEHOiMv6tR8niBdneeOHdRlqnwnlRdCHjSUvtFVGx7ozGfxXt2w1BwFso5KnNe_-kjlN6SfKKkfy9POqALbAmS37r-6SaRrEylKjbDfuWoKTboCeEYZaxPdYfOwDKWWbzvnvbBxAf5JhNtwt-TsAYF7Sct1Gz_oMAnLJpq_qG7z6iuyyRy3Ru48lYDzaS9OC36miNdPzzoWjfSIelt5scmFyB11colvxpKWF43D2aGgdxpW9Er11uzIHB71l8YyK5JePr1ji0Pia9lcLjCxkNRro5sA11i9WtNh4BivVryUQuke0uvNe7t8gjLjfT5fg6XSyx76moxtSfjr9NJRJtYkmRUf9i3_hwoElGl5OjGtG4NI2TqXe-PWBf-U9iFh0iYHpnnApPrMnhw4LUZVtlSYo_mqS_G-2EZ2jb2XOSsbJbmKipKLCRZFnxwA6JwRMBcPUWSmqb39fEfYBK7LCtW-RPCBFApf07nYnOUYRbGyzjO3Jbyb4rK7Qpa0pjjKnUV6YakNADZ8QddnOrBS73pc-IuwRsBkiK151XEs9IUd_HStpSVHjB-OV7kOtqrcsNMplFbrkzTreQhTjImgk4OTmDG4kH7NT85g11wuDJLY6qxXlm00]--></g></svg>