<svg xmlns="http://www.w3.org/2000/svg" xmlns:xlink="http://www.w3.org/1999/xlink" contentStyleType="text/css" data-diagram-type="CLASS" height="802px" preserveAspectRatio="none" style="width:2165px;height:802px;background:#F9F9F9;" version="1.1" viewBox="0 0 2165 802" width="2165px" zoomAndPan="magnify"><defs><filter height="300%" id="f1wch3v5v9z2ug" width="300%" x="-1" y="-1"><feGaussianBlur result="blurOut" stdDeviation="2"/><feColorMatrix in="blurOut" result="blurOut2" type="matrix" values="0 0 0 0 0 0 0 0 0 0 0 0 0 0 0 0 0 0 .4 0"/><feOffset dx="4" dy="4" in="blurOut2" result="blurOut3"/><feBlend in="SourceGraphic" in2="blurOut3" mode="normal"/></filter></defs><g><rect fill="#F9F9F9" height="802" style="stroke:none;stroke-width:1;" width="2165" x="0" y="0"/><!--cluster winterhavenmc--><g class="cluster" data-entity="winterhavenmc" data-uid="ent0002" id="cluster_winterhavenmc"><path d="M13.5,6 L126.1797,6 A11.25,11.25 0 0 1 133.6797,13.5 L140.6797,28.2969 L2143.5,28.2969 A7.5,7.5 0 0 1 2151,35.7969 L2151,780.12 A7.5,7.5 0 0 1 2143.5,787.62 L13.5,787.62 A7.5,7.5 0 0 1 6,780.12 L6,13.5 A7.5,7.5 0 0 1 13.5,6" fill="#ECECEC" filter="url(#f1wch3v5v9z2ug)" style="stroke:#000000;stroke-width:1.5;"/><line style="stroke:#000000;stroke-width:1.5;" x1="6" x2="140.6797" y1="28.2969" y2="28.2969"/><text fill="#000000" font-family="sans-serif" font-size="14" font-weight="bold" lengthAdjust="spacing" textLength="121.6797" x="10" y="20.9951">winterhavenmc</text></g><!--cluster deathcompass--><g class="cluster" data-entity="deathcompass" data-uid="ent0003" id="cluster_deathcompass"><path d="M37.5,49 L142.7627,49 A11.25,11.25 0 0 1 150.2627,56.5 L157.2627,71.2969 L2119.5,71.2969 A7.5,7.5 0 0 1 2127,78.7969 L2127,756.12 A7.5,7.5 0 0 1 2119.5,763.62 L37.5,763.62 A7.5,7.5 0 0 1 30,756.12 L30,56.5 A7.5,7.5 0 0 1 37.5,49" fill="#D8D8D8" filter="url(#f1wch3v5v9z2ug)" style="stroke:#000000;stroke-width:1.5;"/><line style="stroke:#000000;stroke-width:1.5;" x1="30" x2="157.2627" y1="71.2969" y2="71.2969"/><text fill="#000000" font-family="sans-serif" font-size="14" font-weight="bold" lengthAdjust="spacing" textLength="114.2627" x="34" y="63.9951">deathcompass</text></g><!--class Bootstrap--><g class="entity" data-entity="Bootstrap" data-source-line="33" data-uid="ent0004" id="entity_Bootstrap"><rect fill="#E6E6FA" filter="url(#f1wch3v5v9z2ug)" height="170.3438" rx="7.5" ry="7.5" style="stroke:#888888;stroke-width:0.5;" width="359.2656" x="1128.37" y="84"/><ellipse cx="1269.4774" cy="104.1328" fill="#ADD1B2" rx="11" ry="11" style="stroke:#181818;stroke-width:1;"/><path d="M1272.4462,109.7734 Q1271.868,110.0703 1271.2274,110.2109 Q1270.5868,110.3672 1269.8837,110.3672 Q1267.3837,110.3672 1266.0555,108.7266 Q1264.743,107.0703 1264.743,103.9453 Q1264.743,100.8203 1266.0555,99.1641 Q1267.3837,97.5078 1269.8837,97.5078 Q1270.5868,97.5078 1271.2274,97.6641 Q1271.8837,97.8203 1272.4462,98.1172 L1272.4462,100.8359 Q1271.8212,100.2578 1271.2274,99.9922 Q1270.6337,99.7109 1270.0087,99.7109 Q1268.6649,99.7109 1267.9774,100.7891 Q1267.2899,101.8516 1267.2899,103.9453 Q1267.2899,106.0391 1267.9774,107.1172 Q1268.6649,108.1797 1270.0087,108.1797 Q1270.6337,108.1797 1271.2274,107.9141 Q1271.8212,107.6328 1272.4462,107.0547 L1272.4462,109.7734 Z " fill="#000000"/><text fill="#000000" font-family="sans-serif" font-size="12" font-style="italic" lengthAdjust="spacing" textLength="72.5508" x="1287.9774" y="100.1387">&#171;bootstrap&#187;</text><text fill="#000000" font-family="'Helvetica'" font-size="14" lengthAdjust="spacing" textLength="68.2295" x="1290.1381" y="115.9639">Bootstrap</text><line style="stroke:#888888;stroke-width:0.5;" x1="1129.37" x2="1486.6356" y1="124.2656" y2="124.2656"/><text fill="#000000" font-family="sans-serif" font-size="14" lengthAdjust="spacing" textLength="314.4463" x="1134.37" y="141.2607">#commandDispatcher: CommandDispatcher</text><text fill="#000000" font-family="sans-serif" font-size="14" lengthAdjust="spacing" textLength="347.2656" x="1134.37" y="157.5576">#inventoryEventListener: InventoryEventListener</text><text fill="#000000" font-family="sans-serif" font-size="14" lengthAdjust="spacing" textLength="301.3418" x="1134.37" y="173.8545">#playerEventListener: PlayerEventListener</text><text fill="#000000" font-family="sans-serif" font-size="14" lengthAdjust="spacing" textLength="293.6377" x="1134.37" y="190.1514">#connectionProvider: ConnectionProvider</text><text fill="#000000" font-family="sans-serif" font-size="14" lengthAdjust="spacing" textLength="245.3965" x="1134.37" y="206.4482">#pluginController: PluginController</text><line style="stroke:#888888;stroke-width:0.5;" x1="1129.37" x2="1486.6356" y1="213.75" y2="213.75"/><text fill="#000000" font-family="sans-serif" font-size="14" lengthAdjust="spacing" textLength="87.7803" x="1134.37" y="230.7451">+onEnable()</text><text fill="#000000" font-family="sans-serif" font-size="14" lengthAdjust="spacing" textLength="92.0254" x="1134.37" y="247.042">+onDisable()</text></g><!--class PluginController--><g class="entity" data-entity="PluginController" data-source-line="45" data-uid="ent0005" id="entity_PluginController"><rect fill="#ADD8E6" filter="url(#f1wch3v5v9z2ug)" height="202.9375" rx="7.5" ry="7.5" style="stroke:#888888;stroke-width:0.5;" width="502.0957" x="1056.95" y="314.34"/><ellipse cx="1247.7342" cy="334.4728" fill="#ADD1B2" rx="11" ry="11" style="stroke:#181818;stroke-width:1;"/><path d="M1250.7029,340.1134 Q1250.1248,340.4103 1249.4842,340.5509 Q1248.8436,340.7072 1248.1404,340.7072 Q1245.6404,340.7072 1244.3123,339.0666 Q1242.9998,337.4103 1242.9998,334.2853 Q1242.9998,331.1603 1244.3123,329.5041 Q1245.6404,327.8478 1248.1404,327.8478 Q1248.8436,327.8478 1249.4842,328.0041 Q1250.1404,328.1603 1250.7029,328.4572 L1250.7029,331.1759 Q1250.0779,330.5978 1249.4842,330.3322 Q1248.8904,330.0509 1248.2654,330.0509 Q1246.9217,330.0509 1246.2342,331.1291 Q1245.5467,332.1916 1245.5467,334.2853 Q1245.5467,336.3791 1246.2342,337.4572 Q1246.9217,338.5197 1248.2654,338.5197 Q1248.8904,338.5197 1249.4842,338.2541 Q1250.0779,337.9728 1250.7029,337.3947 L1250.7029,340.1134 Z " fill="#000000"/><text fill="#000000" font-family="sans-serif" font-size="12" font-style="italic" lengthAdjust="spacing" textLength="72.1934" x="1288.1512" y="330.4787">&#171;controller&#187;</text><text fill="#000000" font-family="'Helvetica'" font-size="14" lengthAdjust="spacing" textLength="112.0273" x="1268.2342" y="346.3039">PluginController</text><line style="stroke:#888888;stroke-width:0.5;" x1="1057.95" x2="1558.0457" y1="354.6056" y2="354.6056"/><text fill="#000000" font-family="sans-serif" font-size="14" lengthAdjust="spacing" textLength="314.4463" x="1062.95" y="371.6007">+commandDispatcher: CommandDispatcher</text><text fill="#000000" font-family="sans-serif" font-size="14" lengthAdjust="spacing" textLength="347.2656" x="1062.95" y="387.8976">+inventoryEventListener: InventoryEventListener</text><text fill="#000000" font-family="sans-serif" font-size="14" lengthAdjust="spacing" textLength="293.6377" x="1062.95" y="404.1945">+connectionProvider: ConnectionProvider</text><text fill="#000000" font-family="sans-serif" font-size="14" lengthAdjust="spacing" textLength="244.2002" x="1062.95" y="420.4914">+messageBuilder: MessageBuilder</text><text fill="#000000" font-family="sans-serif" font-size="14" lengthAdjust="spacing" textLength="301.3418" x="1062.95" y="436.7882">+playerEventListener: PlayerEventListener</text><text fill="#000000" font-family="sans-serif" font-size="14" lengthAdjust="spacing" textLength="247.3379" x="1062.95" y="453.0851">+soundConfig: SoundConfiguration</text><text fill="#000000" font-family="sans-serif" font-size="14" lengthAdjust="spacing" textLength="223.1182" x="1062.95" y="469.382">+worldManager: WorldManager</text><line style="stroke:#888888;stroke-width:0.5;" x1="1057.95" x2="1558.0457" y1="476.6838" y2="476.6838"/><text fill="#000000" font-family="sans-serif" font-size="14" lengthAdjust="spacing" textLength="490.0957" x="1062.95" y="493.6789">+startUp(plugin: JavaPlugin, connectionProvider: ConnectionProvider)</text><text fill="#000000" font-family="sans-serif" font-size="14" lengthAdjust="spacing" textLength="92.8525" x="1062.95" y="509.9757">+shutDown()</text></g><!--class CommandDispatcher--><g class="entity" data-entity="CommandDispatcher" data-source-line="59" data-uid="ent0006" id="entity_CommandDispatcher"><rect fill="#FFF5CC" filter="url(#f1wch3v5v9z2ug)" height="105.1563" rx="7.5" ry="7.5" style="stroke:#888888;stroke-width:0.5;" width="776.5176" x="45.74" y="609.87"/><ellipse cx="355.8421" cy="630.0028" fill="#B4A7E5" rx="11" ry="11" style="stroke:#181818;stroke-width:1;"/><path d="M351.7639,625.7684 L351.7639,623.6122 L359.1546,623.6122 L359.1546,625.7684 L356.6858,625.7684 L356.6858,633.8466 L359.1546,633.8466 L359.1546,636.0028 L351.7639,636.0028 L351.7639,633.8466 L354.2327,633.8466 L354.2327,625.7684 L351.7639,625.7684 Z " fill="#000000"/><text fill="#000000" font-family="sans-serif" font-size="12" font-style="italic" lengthAdjust="spacing" textLength="78.082" x="411.2078" y="626.0087">&#171;dispatcher&#187;</text><text fill="#000000" font-family="'Helvetica'" font-size="14" font-style="italic" lengthAdjust="spacing" textLength="147.8135" x="376.3421" y="641.8339">CommandDispatcher</text><line style="stroke:#888888;stroke-width:0.5;" x1="46.74" x2="821.2576" y1="650.1356" y2="650.1356"/><line style="stroke:#888888;stroke-width:0.5;" x1="46.74" x2="821.2576" y1="658.1356" y2="658.1356"/><text fill="#000000" font-family="sans-serif" font-size="14" lengthAdjust="spacing" textLength="427.875" x="51.74" y="675.1307">+init(ctx: CommandContextContainer): CommandDispatcher</text><text fill="#000000" font-family="sans-serif" font-size="14" lengthAdjust="spacing" textLength="710.8691" x="51.74" y="691.4276">+onCommand(sender: CommandSender, command: Command, label: String, args: String[]): boolean</text><text fill="#000000" font-family="sans-serif" font-size="14" lengthAdjust="spacing" textLength="764.5176" x="51.74" y="707.7245">+onTabComplete(sender: CommandSender, command: Command, alias: String, args: String[]): List&lt;String&gt;</text></g><!--class InventoryEventListener--><g class="entity" data-entity="InventoryEventListener" data-source-line="67" data-uid="ent0007" id="entity_InventoryEventListener"><rect fill="#FFF5CC" filter="url(#f1wch3v5v9z2ug)" height="121.4531" rx="7.5" ry="7.5" style="stroke:#888888;stroke-width:0.5;" width="439.7383" x="857.13" y="601.72"/><ellipse cx="991.0973" cy="621.8528" fill="#B4A7E5" rx="11" ry="11" style="stroke:#181818;stroke-width:1;"/><path d="M987.0192,617.6184 L987.0192,615.4622 L994.4098,615.4622 L994.4098,617.6184 L991.941,617.6184 L991.941,625.6966 L994.4098,625.6966 L994.4098,627.8528 L987.0192,627.8528 L987.0192,625.6966 L989.4879,625.6966 L989.4879,617.6184 L987.0192,617.6184 Z " fill="#000000"/><text fill="#000000" font-family="sans-serif" font-size="12" font-style="italic" lengthAdjust="spacing" textLength="59.6133" x="1063.4425" y="617.8587">&#171;listener&#187;</text><text fill="#000000" font-family="'Helvetica'" font-size="14" font-style="italic" lengthAdjust="spacing" textLength="163.3037" x="1011.5973" y="633.6839">InventoryEventListener</text><line style="stroke:#888888;stroke-width:0.5;" x1="858.13" x2="1295.8683" y1="641.9856" y2="641.9856"/><line style="stroke:#888888;stroke-width:0.5;" x1="858.13" x2="1295.8683" y1="649.9856" y2="649.9856"/><text fill="#000000" font-family="sans-serif" font-size="14" lengthAdjust="spacing" textLength="427.7383" x="863.13" y="666.9807">+init(ctx: ListenerContextContainer): InventoryEventListener</text><text fill="#000000" font-family="sans-serif" font-size="14" lengthAdjust="spacing" textLength="329.6973" x="863.13" y="683.2776">+onInventoryClick(event: InventoryClickEvent)</text><text fill="#000000" font-family="sans-serif" font-size="14" lengthAdjust="spacing" textLength="330.9824" x="863.13" y="699.5745">+onInventoryDrag(event: InventoryDragEvent)</text><text fill="#000000" font-family="sans-serif" font-size="14" lengthAdjust="spacing" textLength="401.8027" x="863.13" y="715.8714">+onInventoryMoveItem(event: InventoryMoveItemEvent)</text></g><!--class PlayerEventListener--><g class="entity" data-entity="PlayerEventListener" data-source-line="75" data-uid="ent0008" id="entity_PlayerEventListener"><rect fill="#FFF5CC" filter="url(#f1wch3v5v9z2ug)" height="170.3438" rx="7.5" ry="7.5" style="stroke:#888888;stroke-width:0.5;" width="416.4346" x="1331.78" y="577.28"/><ellipse cx="1465.7473" cy="597.4128" fill="#B4A7E5" rx="11" ry="11" style="stroke:#181818;stroke-width:1;"/><path d="M1461.6692,593.1784 L1461.6692,591.0222 L1469.0598,591.0222 L1469.0598,593.1784 L1466.591,593.1784 L1466.591,601.2566 L1469.0598,601.2566 L1469.0598,603.4128 L1461.6692,603.4128 L1461.6692,601.2566 L1464.1379,601.2566 L1464.1379,593.1784 L1461.6692,593.1784 Z " fill="#000000"/><text fill="#000000" font-family="sans-serif" font-size="12" font-style="italic" lengthAdjust="spacing" textLength="59.6133" x="1526.4406" y="593.4187">&#171;listener&#187;</text><text fill="#000000" font-family="'Helvetica'" font-size="14" font-style="italic" lengthAdjust="spacing" textLength="140" x="1486.2473" y="609.2439">PlayerEventListener</text><line style="stroke:#888888;stroke-width:0.5;" x1="1332.78" x2="1747.2146" y1="617.5456" y2="617.5456"/><line style="stroke:#888888;stroke-width:0.5;" x1="1332.78" x2="1747.2146" y1="625.5456" y2="625.5456"/><text fill="#000000" font-family="sans-serif" font-size="14" lengthAdjust="spacing" textLength="404.4346" x="1337.78" y="642.5407">+init(ctx: ListenerContextContainer): PlayerEventListener</text><text fill="#000000" font-family="sans-serif" font-size="14" lengthAdjust="spacing" textLength="370.7744" x="1337.78" y="658.8376">+onChangeWorld(event: PlayerChangedWorldEvent)</text><text fill="#000000" font-family="sans-serif" font-size="14" lengthAdjust="spacing" textLength="304.5205" x="1337.78" y="675.1345">+onItemDrop(event: PlayerDropItemEvent)</text><text fill="#000000" font-family="sans-serif" font-size="14" lengthAdjust="spacing" textLength="301.041" x="1337.78" y="691.4314">+onPlayerDeath(event: PlayerDeathEvent)</text><text fill="#000000" font-family="sans-serif" font-size="14" lengthAdjust="spacing" textLength="325.623" x="1337.78" y="707.7282">+onPlayerInteract(event: PlayerInteractEvent)</text><text fill="#000000" font-family="sans-serif" font-size="14" lengthAdjust="spacing" textLength="267.2852" x="1337.78" y="724.0251">+onPlayerJoin(event: PlayerJoinEvent)</text><text fill="#000000" font-family="sans-serif" font-size="14" lengthAdjust="spacing" textLength="343.2188" x="1337.78" y="740.322">+onPlayerRespawn(event: PlayerRespawnEvent)</text></g><!--class ConnectionProvider--><g class="entity" data-entity="ConnectionProvider" data-source-line="86" data-uid="ent0009" id="entity_ConnectionProvider"><rect fill="#D5E8D4" filter="url(#f1wch3v5v9z2ug)" height="105.1563" rx="7.5" ry="7.5" style="stroke:#888888;stroke-width:0.5;" width="327.8818" x="1783.06" y="609.87"/><ellipse cx="1874.0463" cy="630.0028" fill="#B4A7E5" rx="11" ry="11" style="stroke:#181818;stroke-width:1;"/><path d="M1869.9682,625.7684 L1869.9682,623.6122 L1877.3588,623.6122 L1877.3588,625.7684 L1874.8901,625.7684 L1874.8901,633.8466 L1877.3588,633.8466 L1877.3588,636.0028 L1869.9682,636.0028 L1869.9682,633.8466 L1872.437,633.8466 L1872.437,625.7684 L1869.9682,625.7684 Z " fill="#000000"/><text fill="#000000" font-family="sans-serif" font-size="12" font-style="italic" lengthAdjust="spacing" textLength="75.627" x="1925.4374" y="626.0087">&#171;repository&#187;</text><text fill="#000000" font-family="'Helvetica'" font-size="14" font-style="italic" lengthAdjust="spacing" textLength="137.4092" x="1894.5463" y="641.8339">ConnectionProvider</text><line style="stroke:#888888;stroke-width:0.5;" x1="1784.06" x2="2109.9418" y1="650.1356" y2="650.1356"/><line style="stroke:#888888;stroke-width:0.5;" x1="1784.06" x2="2109.9418" y1="658.1356" y2="658.1356"/><text fill="#000000" font-family="sans-serif" font-size="14" lengthAdjust="spacing" textLength="58.7139" x="1789.06" y="675.1307">+close()</text><text fill="#000000" font-family="sans-serif" font-size="14" lengthAdjust="spacing" textLength="225.0391" x="1789.06" y="691.4276">+connect(): ConnectionProvider</text><text fill="#000000" font-family="sans-serif" font-size="14" lengthAdjust="spacing" textLength="315.8818" x="1789.06" y="707.7245">+deathLocations(): DeathLocationRepository</text></g><!--link Bootstrap to PluginController--><g class="link" data-entity-1="Bootstrap" data-entity-2="PluginController" data-source-line="95" data-uid="lnk10" id="link_Bootstrap_PluginController"><path codeLine="95" d="M1308,254.7 C1308,273.9 1308,288.47 1308,308.26" fill="none" id="Bootstrap-to-PluginController" style="stroke:#444444;stroke-width:1.2;"/><polygon fill="#444444" points="1308,314.26,1312,305.26,1308,309.26,1304,305.26,1308,314.26" style="stroke:#444444;stroke-width:1.2;"/></g><!--link PluginController to CommandDispatcher--><g class="link" data-entity-1="PluginController" data-entity-2="CommandDispatcher" data-source-line="96" data-uid="lnk11" id="link_PluginController_CommandDispatcher"><path codeLine="96" d="M1056.67,487.16 C917.35,526.15 752.878,572.1929 625.638,607.8029" fill="none" id="PluginController-to-CommandDispatcher" style="stroke:#444444;stroke-width:1.2;"/><polygon fill="#444444" points="619.86,609.42,629.605,610.8464,624.675,608.0725,627.4489,603.1424,619.86,609.42" style="stroke:#444444;stroke-width:1.2;"/></g><!--link PluginController to ConnectionProvider--><g class="link" data-entity-1="PluginController" data-entity-2="ConnectionProvider" data-source-line="97" data-uid="lnk12" id="link_PluginController_ConnectionProvider"><path codeLine="97" d="M1559.25,499.85 C1626.88,523.55 1699.66,550.3 1766,577.28 C1790.08,587.07 1810.1296,595.8314 1834.1596,606.8914" fill="none" id="PluginController-to-ConnectionProvider" style="stroke:#444444;stroke-width:1.2;"/><polygon fill="#444444" points="1839.61,609.4,1833.1068,602.0035,1835.068,607.3095,1829.762,609.2707,1839.61,609.4" style="stroke:#444444;stroke-width:1.2;"/></g><!--link PluginController to InventoryEventListener--><g class="link" data-entity-1="PluginController" data-entity-2="InventoryEventListener" data-source-line="98" data-uid="lnk13" id="link_PluginController_InventoryEventListener"><path codeLine="98" d="M1212.71,517.72 C1185.87,546.15 1161.6398,571.818 1137.8298,597.028" fill="none" id="PluginController-to-InventoryEventListener" style="stroke:#444444;stroke-width:1.2;"/><polygon fill="#444444" points="1133.71,601.39,1142.7977,597.5935,1137.1432,597.755,1136.9817,592.1004,1133.71,601.39" style="stroke:#444444;stroke-width:1.2;"/></g><!--link PluginController to PlayerEventListener--><g class="link" data-entity-1="PluginController" data-entity-2="PlayerEventListener" data-source-line="99" data-uid="lnk14" id="link_PluginController_PlayerEventListener"><path codeLine="99" d="M1403.7,517.72 C1422.43,537.47 1437.7515,553.6262 1455.8915,572.7562" fill="none" id="PluginController-to-PlayerEventListener" style="stroke:#444444;stroke-width:1.2;"/><polygon fill="#444444" points="1460.02,577.11,1456.7298,567.827,1456.5796,573.4818,1450.9247,573.3316,1460.02,577.11" style="stroke:#444444;stroke-width:1.2;"/></g><!--SRC=[dLRRRjiu47ttLmoIXpXml6WMJP4QIG37bzIfangn5ujYiG-qD968qAH0KdRJnVvxIKgMgOjpgGL3uCoP8UVCXJg2oyjBk9b-k-vFORxuFftStrXHIprHdX19Lh0amLCaHSh3WM12mk7ZP_ju21MJK6meZq3B53r5RYKvIZWzynHzASKcT_VH_QhAHKo39uvAmUaVVrQLOy7rdFv4E3trL8avA8bmGJN37SBt732Yb5NTanN2mHTaQzGq80TLJ5zhIPUfnaaWkFFpeGg1_re0rnLkDZ7LQEL2XYZp0C_Th_L_gtK4IgD4ePyJLF1eb58mx2w9mX02YpOalcMZYukb45ffIPAhAvYIDNApNnFEd5-RJHXA2wHHhAzPYat85U66FVcAlv2gXEWWTi33yNXyDXWquHWreVBNKAccZEfd2nfz6dyOZvj04XEXg1RIuOPde_FXnunDMxkp_k1h_sOqTrMRbm0Sc6eqJCSsa5Lm08SOsATbgImm8H8T1sAL698D93otZm5O4C0HTBjTayYSPh1BfyYIibEKSk4GcGE0GvFJbQ4r71QazM1G5HLWoirfRPWZ-vxc1FPWqYWlp196db5MR6PreNSepZ7GLF2P56iQPgUgoZp_QKJveAWZwxmioQ4T47p4oP9X-zWJcKWzcSdRZjsWx29ZjkeToaLSOhZp7eOxlyTmvts4TM1bffOfiEkKCWUzAwqBs3lprW6LzGH_f54Fvhj5AeazHu7R2Cd2kwoRU_2tjzgvqaJglv9sbjiUt98roNW_UMEqkmohEDL3iU5D2SvJeOhcSMtvI0AiPmdAmwMIPygfRWVwHv5UMo3uGziNeOQcuvSIBtYkQoitsGhit2rFjcLKo4-0aIKomxEsC_a4Y8pKTlNFlsOpq_GC2VUsM92biKuOQdpxDeHHebxOnbR1HRQ-glExhP4cWfkB6lpHl9VZBRg1v5TwHV02C63c2c-ZNNbcJkfiZvkCXf94DHiht6zo9zOuqRYgcMqLdcdEtewbXeOhKVHUUbvgO5E5CU4HkfRSdZOpo1IXqzGZDJ4CfKZA9bPIYIw3vsfxkrKih6WFV68P8O4kMsobUunk1ULb0olP0tv0qvQR2ZuNrZEKrVVCbBPZqMIgQOHKfn9KlXQyUu89vTzB-PHh7xyuojqdmbG4Ri0g2nxwaeTYh_pezbzycJoCflt5vDlz_CjabdsUx3uQkjsh-ZLQk_aigZxKzi1gGJJYzhHl8xQXbdy1]--></g></svg>