<!--
  - Copyright (c) 2025 Tim Savage.
  -
  - This program is free software: you can redistribute it and/or modify
  - it under the terms of the GNU General Public License as published by
  - the Free Software Foundation, version 3.
  -
  - This program is distributed in the hope that it will be useful, but
  - WITHOUT ANY WARRANTY; without even the implied warranty of
  - MERCHANTABILITY or FITNESS FOR A PARTICULAR PURPOSE. See the GNU
  - General Public License for more details.
  -
  - You should have received a copy of the GNU General Public License
  - along with this program. If not, see <http://www.gnu.org/licenses/>.
  -
  -->

<svg xmlns="http://www.w3.org/2000/svg" xmlns:xlink="http://www.w3.org/1999/xlink" contentStyleType="text/css" data-diagram-type="CLASS" height="867px" preserveAspectRatio="none" style="width:2698px;height:867px;background:#F9F9F9;" version="1.1" viewBox="0 0 2698 867" width="2698px" zoomAndPan="magnify"><defs><filter height="300%" id="f1sc9knee2tiqp" width="300%" x="-1" y="-1"><feGaussianBlur result="blurOut" stdDeviation="2"/><feColorMatrix in="blurOut" result="blurOut2" type="matrix" values="0 0 0 0 0 0 0 0 0 0 0 0 0 0 0 0 0 0 .4 0"/><feOffset dx="4" dy="4" in="blurOut2" result="blurOut3"/><feBlend in="SourceGraphic" in2="blurOut3" mode="normal"/></filter></defs><g><rect fill="#F9F9F9" height="867" style="stroke:none;stroke-width:1;" width="2698" x="0" y="0"/><!--cluster winterhavenmc--><g class="cluster" data-entity="winterhavenmc" data-source-line="26" data-uid="ent0002" id="cluster_winterhavenmc"><path d="M13.5,6 L126.1797,6 A11.25,11.25 0 0 1 133.6797,13.5 L140.6797,28.2969 L2676.5,28.2969 A7.5,7.5 0 0 1 2684,35.7969 L2684,845.31 A7.5,7.5 0 0 1 2676.5,852.81 L13.5,852.81 A7.5,7.5 0 0 1 6,845.31 L6,13.5 A7.5,7.5 0 0 1 13.5,6" fill="#ECECEC" filter="url(#f1sc9knee2tiqp)" style="stroke:#000000;stroke-width:1.5;"/><line style="stroke:#000000;stroke-width:1.5;" x1="6" x2="140.6797" y1="28.2969" y2="28.2969"/><text fill="#000000" font-family="sans-serif" font-size="14" font-weight="bold" lengthAdjust="spacing" textLength="121.6797" x="10" y="20.9951">winterhavenmc</text></g><!--cluster deathcompass--><g class="cluster" data-entity="deathcompass" data-source-line="27" data-uid="ent0003" id="cluster_deathcompass"><path d="M37.5,49 L142.7627,49 A11.25,11.25 0 0 1 150.2627,56.5 L157.2627,71.2969 L2652.5,71.2969 A7.5,7.5 0 0 1 2660,78.7969 L2660,821.31 A7.5,7.5 0 0 1 2652.5,828.81 L37.5,828.81 A7.5,7.5 0 0 1 30,821.31 L30,56.5 A7.5,7.5 0 0 1 37.5,49" fill="#D8D8D8" filter="url(#f1sc9knee2tiqp)" style="stroke:#000000;stroke-width:1.5;"/><line style="stroke:#000000;stroke-width:1.5;" x1="30" x2="157.2627" y1="71.2969" y2="71.2969"/><text fill="#000000" font-family="sans-serif" font-size="14" font-weight="bold" lengthAdjust="spacing" textLength="114.2627" x="34" y="63.9951">deathcompass</text></g><!--class Bootstrap--><g class="entity" data-entity="Bootstrap" data-source-line="30" data-uid="ent0004" id="entity_Bootstrap"><rect fill="#ADD8E6" filter="url(#f1sc9knee2tiqp)" height="121.4531" rx="7.5" ry="7.5" style="stroke:#888888;stroke-width:0.5;" width="298.959" x="1537.52" y="84"/><ellipse cx="1648.6347" cy="104.1328" fill="#ADD1B2" rx="11" ry="11" style="stroke:#181818;stroke-width:1;"/><path d="M1651.6035,109.7734 Q1651.0254,110.0703 1650.3847,110.2109 Q1649.7441,110.3672 1649.041,110.3672 Q1646.541,110.3672 1645.2129,108.7266 Q1643.9004,107.0703 1643.9004,103.9453 Q1643.9004,100.8203 1645.2129,99.1641 Q1646.541,97.5078 1649.041,97.5078 Q1649.7441,97.5078 1650.3847,97.6641 Q1651.041,97.8203 1651.6035,98.1172 L1651.6035,100.8359 Q1650.9785,100.2578 1650.3847,99.9922 Q1649.791,99.7109 1649.166,99.7109 Q1647.8222,99.7109 1647.1347,100.7891 Q1646.4472,101.8516 1646.4472,103.9453 Q1646.4472,106.0391 1647.1347,107.1172 Q1647.8222,108.1797 1649.166,108.1797 Q1649.791,108.1797 1650.3847,107.9141 Q1650.9785,107.6328 1651.6035,107.0547 L1651.6035,109.7734 Z " fill="#000000"/><text fill="#000000" font-family="sans-serif" font-size="12" font-style="italic" lengthAdjust="spacing" textLength="72.1934" x="1667.1528" y="100.1387">&#171;controller&#187;</text><text fill="#000000" font-family="'Helvetica'" font-size="14" lengthAdjust="spacing" textLength="68.2295" x="1669.1347" y="115.9639">Bootstrap</text><line style="stroke:#888888;stroke-width:0.5;" x1="1538.52" x2="1835.479" y1="124.2656" y2="124.2656"/><text fill="#000000" font-family="sans-serif" font-size="14" lengthAdjust="spacing" textLength="286.959" x="1543.52" y="141.2607">-connectionProvider: ConnectionProvider</text><text fill="#000000" font-family="sans-serif" font-size="14" lengthAdjust="spacing" textLength="238.7178" x="1543.52" y="157.5576">-pluginController: PluginController</text><line style="stroke:#888888;stroke-width:0.5;" x1="1538.52" x2="1835.479" y1="164.8594" y2="164.8594"/><text fill="#000000" font-family="sans-serif" font-size="14" lengthAdjust="spacing" textLength="87.7803" x="1543.52" y="181.8545">+onEnable()</text><text fill="#000000" font-family="sans-serif" font-size="14" lengthAdjust="spacing" textLength="92.0254" x="1543.52" y="198.1514">+onDisable()</text></g><!--class PluginController--><g class="entity" data-entity="PluginController" data-source-line="37" data-uid="ent0005" id="entity_PluginController"><rect fill="#ADD8E6" filter="url(#f1sc9knee2tiqp)" height="219.2344" rx="7.5" ry="7.5" style="stroke:#888888;stroke-width:0.5;" width="502.0957" x="1435.95" y="265.45"/><ellipse cx="1626.7342" cy="285.5828" fill="#ADD1B2" rx="11" ry="11" style="stroke:#181818;stroke-width:1;"/><path d="M1629.7029,291.2234 Q1629.1248,291.5203 1628.4842,291.6609 Q1627.8436,291.8172 1627.1404,291.8172 Q1624.6404,291.8172 1623.3123,290.1766 Q1621.9998,288.5203 1621.9998,285.3953 Q1621.9998,282.2703 1623.3123,280.6141 Q1624.6404,278.9578 1627.1404,278.9578 Q1627.8436,278.9578 1628.4842,279.1141 Q1629.1404,279.2703 1629.7029,279.5672 L1629.7029,282.2859 Q1629.0779,281.7078 1628.4842,281.4422 Q1627.8904,281.1609 1627.2654,281.1609 Q1625.9217,281.1609 1625.2342,282.2391 Q1624.5467,283.3016 1624.5467,285.3953 Q1624.5467,287.4891 1625.2342,288.5672 Q1625.9217,289.6297 1627.2654,289.6297 Q1627.8904,289.6297 1628.4842,289.3641 Q1629.0779,289.0828 1629.7029,288.5047 L1629.7029,291.2234 Z " fill="#000000"/><text fill="#000000" font-family="sans-serif" font-size="12" font-style="italic" lengthAdjust="spacing" textLength="72.1934" x="1667.1512" y="281.5887">&#171;controller&#187;</text><text fill="#000000" font-family="'Helvetica'" font-size="14" lengthAdjust="spacing" textLength="112.0273" x="1647.2342" y="297.4139">PluginController</text><line style="stroke:#888888;stroke-width:0.5;" x1="1436.95" x2="1937.0457" y1="305.7156" y2="305.7156"/><text fill="#000000" font-family="sans-serif" font-size="14" lengthAdjust="spacing" textLength="285.4619" x="1441.95" y="322.7107">+commandManager: CommandManager</text><text fill="#000000" font-family="sans-serif" font-size="14" lengthAdjust="spacing" textLength="225.5586" x="1441.95" y="339.0076">+datastore: ConnectionProvider</text><text fill="#000000" font-family="sans-serif" font-size="14" lengthAdjust="spacing" textLength="314.0977" x="1441.95" y="355.3045">+deathCompassUtility: DeathCompassUtility</text><text fill="#000000" font-family="sans-serif" font-size="14" lengthAdjust="spacing" textLength="347.2656" x="1441.95" y="371.6014">+inventoryEventListener: InventoryEventListener</text><text fill="#000000" font-family="sans-serif" font-size="14" lengthAdjust="spacing" textLength="244.2002" x="1441.95" y="387.8982">+messageBuilder: MessageBuilder</text><text fill="#000000" font-family="sans-serif" font-size="14" lengthAdjust="spacing" textLength="301.3418" x="1441.95" y="404.1951">+playerEventListener: PlayerEventListener</text><text fill="#000000" font-family="sans-serif" font-size="14" lengthAdjust="spacing" textLength="247.3379" x="1441.95" y="420.492">+soundConfig: SoundConfiguration</text><text fill="#000000" font-family="sans-serif" font-size="14" lengthAdjust="spacing" textLength="223.1182" x="1441.95" y="436.7889">+worldManager: WorldManager</text><line style="stroke:#888888;stroke-width:0.5;" x1="1436.95" x2="1937.0457" y1="444.0906" y2="444.0906"/><text fill="#000000" font-family="sans-serif" font-size="14" lengthAdjust="spacing" textLength="490.0957" x="1441.95" y="461.0857">+startUp(plugin: JavaPlugin, connectionProvider: ConnectionProvider)</text><text fill="#000000" font-family="sans-serif" font-size="14" lengthAdjust="spacing" textLength="92.8525" x="1441.95" y="477.3826">+shutDown()</text></g><!--class CommandManager--><g class="entity" data-entity="CommandManager" data-source-line="51" data-uid="ent0006" id="entity_CommandManager"><rect fill="#E6E6FA" filter="url(#f1sc9knee2tiqp)" height="137.75" rx="7.5" ry="7.5" style="stroke:#888888;stroke-width:0.5;" width="776.5176" x="45.74" y="609.87"/><ellipse cx="363.0881" cy="630.0028" fill="#ADD1B2" rx="11" ry="11" style="stroke:#181818;stroke-width:1;"/><path d="M366.0569,635.6434 Q365.4788,635.9403 364.8381,636.0809 Q364.1975,636.2372 363.4944,636.2372 Q360.9944,636.2372 359.6663,634.5966 Q358.3538,632.9403 358.3538,629.8153 Q358.3538,626.6903 359.6663,625.0341 Q360.9944,623.3778 363.4944,623.3778 Q364.1975,623.3778 364.8381,623.5341 Q365.4944,623.6903 366.0569,623.9872 L366.0569,626.7059 Q365.4319,626.1278 364.8381,625.8622 Q364.2444,625.5809 363.6194,625.5809 Q362.2756,625.5809 361.5881,626.6591 Q360.9006,627.7216 360.9006,629.8153 Q360.9006,631.9091 361.5881,632.9872 Q362.2756,634.0497 363.6194,634.0497 Q364.2444,634.0497 364.8381,633.7841 Q365.4319,633.5028 366.0569,632.9247 L366.0569,635.6434 Z " fill="#000000"/><text fill="#000000" font-family="sans-serif" font-size="12" font-style="italic" lengthAdjust="spacing" textLength="68.6191" x="415.9392" y="626.0087">&#171;manager&#187;</text><text fill="#000000" font-family="'Helvetica'" font-size="14" lengthAdjust="spacing" textLength="133.3213" x="383.5881" y="641.8339">CommandManager</text><line style="stroke:#888888;stroke-width:0.5;" x1="46.74" x2="821.2576" y1="650.1356" y2="650.1356"/><text fill="#000000" font-family="sans-serif" font-size="14" lengthAdjust="spacing" textLength="231.1504" x="51.74" y="667.1307">-ctx: CommandContextContainer</text><text fill="#000000" font-family="sans-serif" font-size="14" lengthAdjust="spacing" textLength="321.5557" x="51.74" y="683.4276">-subcommandRegistry: SubcommandRegistry</text><line style="stroke:#888888;stroke-width:0.5;" x1="46.74" x2="821.2576" y1="690.7294" y2="690.7294"/><text fill="#000000" font-family="sans-serif" font-size="14" lengthAdjust="spacing" textLength="672.0273" x="51.74" y="707.7245">-getMatchingSubcommandNames(sender: CommandSender, matchString: String): List&lt;String&gt;</text><text fill="#000000" font-family="sans-serif" font-size="14" lengthAdjust="spacing" textLength="710.8691" x="51.74" y="724.0214">+onCommand(sender: CommandSender, command: Command, label: String, args: String[]): boolean</text><text fill="#000000" font-family="sans-serif" font-size="14" lengthAdjust="spacing" textLength="764.5176" x="51.74" y="740.3182">+onTabComplete(sender: CommandSender, command: Command, alias: String, args: String[]): List&lt;String&gt;</text></g><!--class InventoryEventListener--><g class="entity" data-entity="InventoryEventListener" data-source-line="60" data-uid="ent0007" id="entity_InventoryEventListener"><rect fill="#FFF5CC" filter="url(#f1sc9knee2tiqp)" height="137.75" rx="7.5" ry="7.5" style="stroke:#888888;stroke-width:0.5;" width="602.6387" x="857.68" y="609.87"/><ellipse cx="1073.0975" cy="630.0028" fill="#ADD1B2" rx="11" ry="11" style="stroke:#181818;stroke-width:1;"/><path d="M1076.0662,635.6434 Q1075.4881,635.9403 1074.8475,636.0809 Q1074.2069,636.2372 1073.5037,636.2372 Q1071.0037,636.2372 1069.6756,634.5966 Q1068.3631,632.9403 1068.3631,629.8153 Q1068.3631,626.6903 1069.6756,625.0341 Q1071.0037,623.3778 1073.5037,623.3778 Q1074.2069,623.3778 1074.8475,623.5341 Q1075.5037,623.6903 1076.0662,623.9872 L1076.0662,626.7059 Q1075.4412,626.1278 1074.8475,625.8622 Q1074.2537,625.5809 1073.6287,625.5809 Q1072.285,625.5809 1071.5975,626.6591 Q1070.91,627.7216 1070.91,629.8153 Q1070.91,631.9091 1071.5975,632.9872 Q1072.285,634.0497 1073.6287,634.0497 Q1074.2537,634.0497 1074.8475,633.7841 Q1075.4412,633.5028 1076.0662,632.9247 L1076.0662,635.6434 Z " fill="#000000"/><text fill="#000000" font-family="sans-serif" font-size="12" font-style="italic" lengthAdjust="spacing" textLength="59.6133" x="1145.4427" y="626.0087">&#171;listener&#187;</text><text fill="#000000" font-family="'Helvetica'" font-size="14" lengthAdjust="spacing" textLength="163.3037" x="1093.5975" y="641.8339">InventoryEventListener</text><line style="stroke:#888888;stroke-width:0.5;" x1="858.68" x2="1459.3187" y1="650.1356" y2="650.1356"/><text fill="#000000" font-family="sans-serif" font-size="14" lengthAdjust="spacing" textLength="215.5234" x="863.68" y="667.1307">-ctx: ListenerContextContainer</text><line style="stroke:#888888;stroke-width:0.5;" x1="858.68" x2="1459.3187" y1="674.4325" y2="674.4325"/><text fill="#000000" font-family="sans-serif" font-size="14" lengthAdjust="spacing" textLength="590.6387" x="863.68" y="691.4276">-cancelInventoryTransfer(event: Cancellable, player: HumanEntity, item: ItemStack)</text><text fill="#000000" font-family="sans-serif" font-size="14" lengthAdjust="spacing" textLength="329.6973" x="863.68" y="707.7245">+onInventoryClick(event: InventoryClickEvent)</text><text fill="#000000" font-family="sans-serif" font-size="14" lengthAdjust="spacing" textLength="330.9824" x="863.68" y="724.0214">+onInventoryDrag(event: InventoryDragEvent)</text><text fill="#000000" font-family="sans-serif" font-size="14" lengthAdjust="spacing" textLength="401.8027" x="863.68" y="740.3182">+onInventoryMoveItem(event: InventoryMoveItemEvent)</text></g><!--class PlayerEventListener--><g class="entity" data-entity="PlayerEventListener" data-source-line="68" data-uid="ent0008" id="entity_PlayerEventListener"><rect fill="#FFF5CC" filter="url(#f1sc9knee2tiqp)" height="268.125" rx="7.5" ry="7.5" style="stroke:#888888;stroke-width:0.5;" width="382.7744" x="1495.61" y="544.69"/><ellipse cx="1612.7472" cy="564.8228" fill="#ADD1B2" rx="11" ry="11" style="stroke:#181818;stroke-width:1;"/><path d="M1615.716,570.4634 Q1615.1378,570.7603 1614.4972,570.9009 Q1613.8566,571.0572 1613.1535,571.0572 Q1610.6535,571.0572 1609.3253,569.4166 Q1608.0128,567.7603 1608.0128,564.6353 Q1608.0128,561.5103 1609.3253,559.8541 Q1610.6535,558.1978 1613.1535,558.1978 Q1613.8566,558.1978 1614.4972,558.3541 Q1615.1535,558.5103 1615.716,558.8072 L1615.716,561.5259 Q1615.091,560.9478 1614.4972,560.6822 Q1613.9035,560.4009 1613.2785,560.4009 Q1611.9347,560.4009 1611.2472,561.4791 Q1610.5597,562.5416 1610.5597,564.6353 Q1610.5597,566.7291 1611.2472,567.8072 Q1611.9347,568.8697 1613.2785,568.8697 Q1613.9035,568.8697 1614.4972,568.6041 Q1615.091,568.3228 1615.716,567.7447 L1615.716,570.4634 Z " fill="#000000"/><text fill="#000000" font-family="sans-serif" font-size="12" font-style="italic" lengthAdjust="spacing" textLength="59.6133" x="1673.4406" y="560.8287">&#171;listener&#187;</text><text fill="#000000" font-family="'Helvetica'" font-size="14" lengthAdjust="spacing" textLength="140" x="1633.2472" y="576.6539">PlayerEventListener</text><line style="stroke:#888888;stroke-width:0.5;" x1="1496.61" x2="1877.3844" y1="584.9556" y2="584.9556"/><text fill="#000000" font-family="sans-serif" font-size="14" lengthAdjust="spacing" textLength="215.5234" x="1501.61" y="601.9507">-ctx: ListenerContextContainer</text><text fill="#000000" font-family="sans-serif" font-size="14" lengthAdjust="spacing" textLength="267.7773" x="1501.61" y="618.2476">-deathTriggeredRespawn: Set&lt;UUID&gt;</text><text fill="#000000" font-family="sans-serif" font-size="14" lengthAdjust="spacing" textLength="216.9863" x="1501.61" y="634.5445">-localeProvider: LocaleProvider</text><line style="stroke:#888888;stroke-width:0.5;" x1="1496.61" x2="1877.3844" y1="641.8462" y2="641.8462"/><text fill="#000000" font-family="sans-serif" font-size="14" lengthAdjust="spacing" textLength="306.127" x="1501.61" y="658.8414">-getDeathLocation(player: Player): Location</text><text fill="#000000" font-family="sans-serif" font-size="14" lengthAdjust="spacing" textLength="328.5557" x="1501.61" y="675.1382">-giveDeathCompass(player: Player): ItemStack</text><text fill="#000000" font-family="sans-serif" font-size="14" lengthAdjust="spacing" textLength="370.7744" x="1501.61" y="691.4351">+onChangeWorld(event: PlayerChangedWorldEvent)</text><text fill="#000000" font-family="sans-serif" font-size="14" lengthAdjust="spacing" textLength="304.5205" x="1501.61" y="707.732">+onItemDrop(event: PlayerDropItemEvent)</text><text fill="#000000" font-family="sans-serif" font-size="14" lengthAdjust="spacing" textLength="301.041" x="1501.61" y="724.0289">+onPlayerDeath(event: PlayerDeathEvent)</text><text fill="#000000" font-family="sans-serif" font-size="14" lengthAdjust="spacing" textLength="325.623" x="1501.61" y="740.3257">+onPlayerInteract(event: PlayerInteractEvent)</text><text fill="#000000" font-family="sans-serif" font-size="14" lengthAdjust="spacing" textLength="267.2852" x="1501.61" y="756.6226">+onPlayerJoin(event: PlayerJoinEvent)</text><text fill="#000000" font-family="sans-serif" font-size="14" lengthAdjust="spacing" textLength="343.2188" x="1501.61" y="772.9195">+onPlayerRespawn(event: PlayerRespawnEvent)</text><text fill="#000000" font-family="sans-serif" font-size="14" lengthAdjust="spacing" textLength="334.3867" x="1501.61" y="789.2164">-removeDeathCompasses(inventory: Inventory)</text><text fill="#000000" font-family="sans-serif" font-size="14" lengthAdjust="spacing" textLength="300.7266" x="1501.61" y="805.5132">-resetDeathCompassTarget(player: Player)</text></g><!--class DeathCompassUtility--><g class="entity" data-entity="DeathCompassUtility" data-source-line="85" data-uid="ent0009" id="entity_DeathCompassUtility"><rect fill="#E6F0FF" filter="url(#f1sc9knee2tiqp)" height="105.1563" rx="7.5" ry="7.5" style="stroke:#888888;stroke-width:0.5;" width="367.5303" x="1913.23" y="626.17"/><ellipse cx="2018.9717" cy="646.3028" fill="#ADD1B2" rx="11" ry="11" style="stroke:#181818;stroke-width:1;"/><path d="M2021.9404,651.9434 Q2021.3623,652.2403 2020.7217,652.3809 Q2020.0811,652.5372 2019.3779,652.5372 Q2016.8779,652.5372 2015.5498,650.8966 Q2014.2373,649.2403 2014.2373,646.1153 Q2014.2373,642.9903 2015.5498,641.3341 Q2016.8779,639.6778 2019.3779,639.6778 Q2020.0811,639.6778 2020.7217,639.8341 Q2021.3779,639.9903 2021.9404,640.2872 L2021.9404,643.0059 Q2021.3154,642.4278 2020.7217,642.1622 Q2020.1279,641.8809 2019.5029,641.8809 Q2018.1592,641.8809 2017.4717,642.9591 Q2016.7842,644.0216 2016.7842,646.1153 Q2016.7842,648.2091 2017.4717,649.2872 Q2018.1592,650.3497 2019.5029,650.3497 Q2020.1279,650.3497 2020.7217,650.0841 Q2021.3154,649.8028 2021.9404,649.2247 L2021.9404,651.9434 Z " fill="#000000"/><text fill="#000000" font-family="sans-serif" font-size="12" font-style="italic" lengthAdjust="spacing" textLength="48.8027" x="2088.8438" y="642.3087">&#171;utility&#187;</text><text fill="#000000" font-family="'Helvetica'" font-size="14" lengthAdjust="spacing" textLength="147.5469" x="2039.4717" y="658.1339">DeathCompassUtility</text><line style="stroke:#888888;stroke-width:0.5;" x1="1914.23" x2="2279.7603" y1="666.4356" y2="666.4356"/><text fill="#000000" font-family="sans-serif" font-size="14" lengthAdjust="spacing" textLength="169.5449" x="1919.23" y="683.4307">-plugin: PluginController</text><line style="stroke:#888888;stroke-width:0.5;" x1="1914.23" x2="2279.7603" y1="690.7325" y2="690.7325"/><text fill="#000000" font-family="sans-serif" font-size="14" lengthAdjust="spacing" textLength="179.0674" x="1919.23" y="707.7276">+createItem(): ItemStack</text><text fill="#000000" font-family="sans-serif" font-size="14" lengthAdjust="spacing" textLength="355.5303" x="1919.23" y="724.0245">+isDeathCompass(itemStack: ItemStack): boolean</text></g><!--class ConnectionProvider--><g class="entity" data-entity="ConnectionProvider" data-source-line="92" data-uid="ent0010" id="entity_ConnectionProvider"><rect fill="#D5E8D4" filter="url(#f1sc9knee2tiqp)" height="105.1563" rx="7.5" ry="7.5" style="stroke:#888888;stroke-width:0.5;" width="327.8818" x="2316.06" y="626.17"/><ellipse cx="2407.0463" cy="646.3028" fill="#B4A7E5" rx="11" ry="11" style="stroke:#181818;stroke-width:1;"/><path d="M2402.9682,642.0684 L2402.9682,639.9122 L2410.3588,639.9122 L2410.3588,642.0684 L2407.8901,642.0684 L2407.8901,650.1466 L2410.3588,650.1466 L2410.3588,652.3028 L2402.9682,652.3028 L2402.9682,650.1466 L2405.437,650.1466 L2405.437,642.0684 L2402.9682,642.0684 Z " fill="#000000"/><text fill="#000000" font-family="sans-serif" font-size="12" font-style="italic" lengthAdjust="spacing" textLength="75.627" x="2458.4374" y="642.3087">&#171;repository&#187;</text><text fill="#000000" font-family="'Helvetica'" font-size="14" font-style="italic" lengthAdjust="spacing" textLength="137.4092" x="2427.5463" y="658.1339">ConnectionProvider</text><line style="stroke:#888888;stroke-width:0.5;" x1="2317.06" x2="2642.9418" y1="666.4356" y2="666.4356"/><line style="stroke:#888888;stroke-width:0.5;" x1="2317.06" x2="2642.9418" y1="674.4356" y2="674.4356"/><text fill="#000000" font-family="sans-serif" font-size="14" lengthAdjust="spacing" textLength="58.7139" x="2322.06" y="691.4307">+close()</text><text fill="#000000" font-family="sans-serif" font-size="14" lengthAdjust="spacing" textLength="225.0391" x="2322.06" y="707.7276">+connect(): ConnectionProvider</text><text fill="#000000" font-family="sans-serif" font-size="14" lengthAdjust="spacing" textLength="315.8818" x="2322.06" y="724.0245">+deathLocations(): DeathLocationRepository</text></g><!--link Bootstrap to PluginController--><g class="link" data-entity-1="Bootstrap" data-entity-2="PluginController" data-source-line="101" data-uid="lnk11" id="link_Bootstrap_PluginController"><path codeLine="101" d="M1687,205.72 C1687,223.95 1687,238.59 1687,259.01" fill="none" id="Bootstrap-to-PluginController" style="stroke:#444444;stroke-width:1.2;"/><polygon fill="#444444" points="1687,265.01,1691,256.01,1687,260.01,1683,256.01,1687,265.01" style="stroke:#444444;stroke-width:1.2;"/></g><!--link PluginController to CommandManager--><g class="link" data-entity-1="PluginController" data-entity-2="CommandManager" data-source-line="102" data-uid="lnk12" id="link_PluginController_CommandManager"><path codeLine="102" d="M1435.49,417.95 C1266.04,448.17 1038.14,492.69 840,544.69 C769.6,563.16 699.211,585.1193 632.141,607.5193" fill="none" id="PluginController-to-CommandManager" style="stroke:#444444;stroke-width:1.2;"/><polygon fill="#444444" points="626.45,609.42,636.2536,610.363,631.1925,607.8361,633.7194,602.775,626.45,609.42" style="stroke:#444444;stroke-width:1.2;"/></g><!--link PluginController to ConnectionProvider--><g class="link" data-entity-1="PluginController" data-entity-2="ConnectionProvider" data-source-line="103" data-uid="lnk13" id="link_PluginController_ConnectionProvider"><path codeLine="103" d="M1938.54,423.85 C2051.83,450.77 2185.18,490.15 2298,544.69 C2342.23,566.06 2382.164,594.6879 2416.144,622.1579" fill="none" id="PluginController-to-ConnectionProvider" style="stroke:#444444;stroke-width:1.2;"/><polygon fill="#444444" points="2420.81,625.93,2416.3257,617.1612,2416.9217,622.7866,2411.2963,623.3826,2420.81,625.93" style="stroke:#444444;stroke-width:1.2;"/></g><!--link PluginController to DeathCompassUtility--><g class="link" data-entity-1="PluginController" data-entity-2="DeathCompassUtility" data-source-line="104" data-uid="lnk14" id="link_PluginController_DeathCompassUtility"><path codeLine="104" d="M1835.02,484.98 C1900.28,533 1969.067,583.6144 2021.617,622.2744" fill="none" id="PluginController-to-DeathCompassUtility" style="stroke:#444444;stroke-width:1.2;"/><polygon fill="#444444" points="2026.45,625.83,2021.5708,617.2747,2022.4225,622.867,2016.8301,623.7187,2026.45,625.83" style="stroke:#444444;stroke-width:1.2;"/></g><!--link PluginController to InventoryEventListener--><g class="link" data-entity-1="PluginController" data-entity-2="InventoryEventListener" data-source-line="105" data-uid="lnk15" id="link_PluginController_InventoryEventListener"><path codeLine="105" d="M1496.38,484.98 C1423.57,526.58 1347.8696,569.8334 1283.5496,606.5834" fill="none" id="PluginController-to-InventoryEventListener" style="stroke:#444444;stroke-width:1.2;"/><polygon fill="#444444" points="1278.34,609.56,1288.1388,608.5682,1282.6813,607.0795,1284.17,601.6221,1278.34,609.56" style="stroke:#444444;stroke-width:1.2;"/></g><!--link PluginController to PlayerEventListener--><g class="link" data-entity-1="PluginController" data-entity-2="PlayerEventListener" data-source-line="106" data-uid="lnk16" id="link_PluginController_PlayerEventListener"><path codeLine="106" d="M1687,484.98 C1687,504.22 1687,518.45 1687,538.27" fill="none" id="PluginController-to-PlayerEventListener" style="stroke:#444444;stroke-width:1.2;"/><polygon fill="#444444" points="1687,544.27,1691,535.27,1687,539.27,1683,535.27,1687,544.27" style="stroke:#444444;stroke-width:1.2;"/></g><!--SRC=[fLPjJoCt4FwUNp42gO0kgOxgg6W4aK9U8DV0HIIeggf-S3R3niAnLxOtEOhkltUyR_6-X28r4KGUFpCUppCpdXEulhw6s-ctc_uKvei_fvE7MoTgcHSk8wRP1fOiU0crYkLge8JISFpyc_jw2BDcAxNZCWIhO_GsCYqjKSFvXRVHrrhjCdDVaazrSx7cmOj4O-3yvr-gcsCbxPp_Wt1-xcr5v2WBSS6jm3t2jnm8PepRUc0RXACx55kqF617LKpVMisNiSL9e6HYvtCL0cyjW9jAR7PhRj79bLwXpYvucNnQFrgj4p0MDIhx6g61PzhKIc1doGok871e2k973hgw8hyiAGlKlHvCURYsDoB69kI6IOfA0cDRbEHN4qfmSaqciEFnU7mn63IXOii5jwyEDFfr_7ayRW9fZ9JXLka4DxmONGw_fBTtkJRh3txltuxcIPPbbC4HPGz5PkqSt0H7S8o1-oPNBp0hP7OTg4r4GI78wj9z2K8OW1FeT3eKTsMDrIo2ds0V8RULWD9uxa6LCBub882EqvKOMAxaJAijfvXrOL2J5V18n26NWy9M5sOLIGRz14gE95iAF3tpH4DkFDcFbkTirT0Xdp-HpnkYUdMVqktyzTS5RCKiCqGEldCZGhbO3z9OFwMaTs5O5nOAN19rZlEH-vrcsTI5IQEyKDjGXPDxDp4NIP3lI-i25WdsYhfYUbON5WecpKVvpCCkpFUBM3DttmAtKrhiG_Q7jzgRiapRf-Wq9RaBNzcMfQoqFvWdUwhDEhP3jPDbfjFSpVWobMmjqmX-FNlvQhyNXBjSmU_M_J0klImryJBBaKSCAM2QA9tNP0KyH7lFRB2cbhH7kSPfJatIHeeJvyco3Hi7drlNnCXoydlM1SVDLRhgUJcVwHwobPrNoDiWs195RhSDJ8ScN_trDvspLDHBcVIEMB2borQ15Zz-31EScNUEgLsdH6AUY5KMcyi0IdstGcSEEiXdm6I0eh2yq4oQPzIdw0HqesHRkCRIpWge2tSntN8aBPLk6-Yjsb25ql-vfIRhTwJ2wa3GEvoRB4kJgpGg3JKBQpfEU5ZbNctHUL9JopSyrKg3h7M1_nVMfFKjD0-fo93AmaHiHsK_Htlrz3GPzWgWK04Jk2_yQMdjrr7IEDsswmgdEHUfvsUfejULI8LlqM-sTPM2DB-Yrao6cFImF8efFjrO9Jjr1iZIKAkehE8abQYdy6pRELVHSA83y8bxt5bWongvz83ILyLbMS593e0pcihuJ5XIwO36ZIg7bpfQyNnvcUUhc8p4J6D1RG5jbPPwEyXUoKepQ7X7mP-jtYg3nJlZHA39LbeuZLd1JIcFU0xmoxxSEal-pwYJ9VKIO767P59xPYIfltHGcVwywKGeumyzsSlflFwlCIGl3-F0fL9wBCxAN7T_nQJvE9hs5vDl3_ExoImTD_UJNwVJgmUrDcivL6MCEe2ftQ0HrpH0DG8FJ4sDs8O6-2y0]--></g></svg>