<svg xmlns="http://www.w3.org/2000/svg" xmlns:xlink="http://www.w3.org/1999/xlink" contentStyleType="text/css" data-diagram-type="CLASS" height="851px" preserveAspectRatio="none" style="width:2295px;height:851px;background:#F9F9F9;" version="1.1" viewBox="0 0 2295 851" width="2295px" zoomAndPan="magnify"><defs><filter height="300%" id="fnfx6anhely07" width="300%" x="-1" y="-1"><feGaussianBlur result="blurOut" stdDeviation="2"/><feColorMatrix in="blurOut" result="blurOut2" type="matrix" values="0 0 0 0 0 0 0 0 0 0 0 0 0 0 0 0 0 0 .4 0"/><feOffset dx="4" dy="4" in="blurOut2" result="blurOut3"/><feBlend in="SourceGraphic" in2="blurOut3" mode="normal"/></filter></defs><g><rect fill="#F9F9F9" height="851" style="stroke:none;stroke-width:1;" width="2295" x="0" y="0"/><!--cluster winterhavenmc--><g class="cluster" data-entity="winterhavenmc" data-source-line="27" data-uid="ent0002" id="cluster_winterhavenmc"><path d="M13.5,6 L126.1797,6 A11.25,11.25 0 0 1 133.6797,13.5 L140.6797,28.2969 L2273.5,28.2969 A7.5,7.5 0 0 1 2281,35.7969 L2281,829.02 A7.5,7.5 0 0 1 2273.5,836.52 L13.5,836.52 A7.5,7.5 0 0 1 6,829.02 L6,13.5 A7.5,7.5 0 0 1 13.5,6" fill="#ECECEC" filter="url(#fnfx6anhely07)" style="stroke:#000000;stroke-width:1.5;"/><line style="stroke:#000000;stroke-width:1.5;" x1="6" x2="140.6797" y1="28.2969" y2="28.2969"/><text fill="#000000" font-family="sans-serif" font-size="14" font-weight="bold" lengthAdjust="spacing" textLength="121.6797" x="10" y="20.9951">winterhavenmc</text></g><!--cluster deathcompass--><g class="cluster" data-entity="deathcompass" data-source-line="28" data-uid="ent0003" id="cluster_deathcompass"><path d="M37.5,49 L142.7627,49 A11.25,11.25 0 0 1 150.2627,56.5 L157.2627,71.2969 L2249.5,71.2969 A7.5,7.5 0 0 1 2257,78.7969 L2257,805.02 A7.5,7.5 0 0 1 2249.5,812.52 L37.5,812.52 A7.5,7.5 0 0 1 30,805.02 L30,56.5 A7.5,7.5 0 0 1 37.5,49" fill="#D8D8D8" filter="url(#fnfx6anhely07)" style="stroke:#000000;stroke-width:1.5;"/><line style="stroke:#000000;stroke-width:1.5;" x1="30" x2="157.2627" y1="71.2969" y2="71.2969"/><text fill="#000000" font-family="sans-serif" font-size="14" font-weight="bold" lengthAdjust="spacing" textLength="114.2627" x="34" y="63.9951">deathcompass</text></g><!--class Bootstrap--><g class="entity" data-entity="Bootstrap" data-source-line="31" data-uid="ent0004" id="entity_Bootstrap"><rect fill="#ADD8E6" filter="url(#fnfx6anhely07)" height="121.4531" rx="7.5" ry="7.5" style="stroke:#888888;stroke-width:0.5;" width="298.959" x="1273.52" y="84"/><ellipse cx="1384.6347" cy="104.1328" fill="#ADD1B2" rx="11" ry="11" style="stroke:#181818;stroke-width:1;"/><path d="M1387.6035,109.7734 Q1387.0254,110.0703 1386.3847,110.2109 Q1385.7441,110.3672 1385.041,110.3672 Q1382.541,110.3672 1381.2129,108.7266 Q1379.9004,107.0703 1379.9004,103.9453 Q1379.9004,100.8203 1381.2129,99.1641 Q1382.541,97.5078 1385.041,97.5078 Q1385.7441,97.5078 1386.3847,97.6641 Q1387.041,97.8203 1387.6035,98.1172 L1387.6035,100.8359 Q1386.9785,100.2578 1386.3847,99.9922 Q1385.791,99.7109 1385.166,99.7109 Q1383.8222,99.7109 1383.1347,100.7891 Q1382.4472,101.8516 1382.4472,103.9453 Q1382.4472,106.0391 1383.1347,107.1172 Q1383.8222,108.1797 1385.166,108.1797 Q1385.791,108.1797 1386.3847,107.9141 Q1386.9785,107.6328 1387.6035,107.0547 L1387.6035,109.7734 Z " fill="#000000"/><text fill="#000000" font-family="sans-serif" font-size="12" font-style="italic" lengthAdjust="spacing" textLength="72.1934" x="1403.1528" y="100.1387">&#171;controller&#187;</text><text fill="#000000" font-family="'Helvetica'" font-size="14" lengthAdjust="spacing" textLength="68.2295" x="1405.1347" y="115.9639">Bootstrap</text><line style="stroke:#888888;stroke-width:0.5;" x1="1274.52" x2="1571.479" y1="124.2656" y2="124.2656"/><text fill="#000000" font-family="sans-serif" font-size="14" lengthAdjust="spacing" textLength="286.959" x="1279.52" y="141.2607">-connectionProvider: ConnectionProvider</text><text fill="#000000" font-family="sans-serif" font-size="14" lengthAdjust="spacing" textLength="238.7178" x="1279.52" y="157.5576">-pluginController: PluginController</text><line style="stroke:#888888;stroke-width:0.5;" x1="1274.52" x2="1571.479" y1="164.8594" y2="164.8594"/><text fill="#000000" font-family="sans-serif" font-size="14" lengthAdjust="spacing" textLength="87.7803" x="1279.52" y="181.8545">+onEnable()</text><text fill="#000000" font-family="sans-serif" font-size="14" lengthAdjust="spacing" textLength="92.0254" x="1279.52" y="198.1514">+onDisable()</text></g><!--class PluginController--><g class="entity" data-entity="PluginController" data-source-line="38" data-uid="ent0005" id="entity_PluginController"><rect fill="#ADD8E6" filter="url(#fnfx6anhely07)" height="202.9375" rx="7.5" ry="7.5" style="stroke:#888888;stroke-width:0.5;" width="502.0957" x="1171.95" y="265.46"/><ellipse cx="1362.7342" cy="285.5928" fill="#ADD1B2" rx="11" ry="11" style="stroke:#181818;stroke-width:1;"/><path d="M1365.7029,291.2334 Q1365.1248,291.5303 1364.4842,291.6709 Q1363.8436,291.8272 1363.1404,291.8272 Q1360.6404,291.8272 1359.3123,290.1866 Q1357.9998,288.5303 1357.9998,285.4053 Q1357.9998,282.2803 1359.3123,280.6241 Q1360.6404,278.9678 1363.1404,278.9678 Q1363.8436,278.9678 1364.4842,279.1241 Q1365.1404,279.2803 1365.7029,279.5772 L1365.7029,282.2959 Q1365.0779,281.7178 1364.4842,281.4522 Q1363.8904,281.1709 1363.2654,281.1709 Q1361.9217,281.1709 1361.2342,282.2491 Q1360.5467,283.3116 1360.5467,285.4053 Q1360.5467,287.4991 1361.2342,288.5772 Q1361.9217,289.6397 1363.2654,289.6397 Q1363.8904,289.6397 1364.4842,289.3741 Q1365.0779,289.0928 1365.7029,288.5147 L1365.7029,291.2334 Z " fill="#000000"/><text fill="#000000" font-family="sans-serif" font-size="12" font-style="italic" lengthAdjust="spacing" textLength="72.1934" x="1403.1512" y="281.5987">&#171;controller&#187;</text><text fill="#000000" font-family="'Helvetica'" font-size="14" lengthAdjust="spacing" textLength="112.0273" x="1383.2342" y="297.4239">PluginController</text><line style="stroke:#888888;stroke-width:0.5;" x1="1172.95" x2="1673.0457" y1="305.7256" y2="305.7256"/><text fill="#000000" font-family="sans-serif" font-size="14" lengthAdjust="spacing" textLength="314.4463" x="1177.95" y="322.7207">+commandDispatcher: CommandDispatcher</text><text fill="#000000" font-family="sans-serif" font-size="14" lengthAdjust="spacing" textLength="225.5586" x="1177.95" y="339.0176">+datastore: ConnectionProvider</text><text fill="#000000" font-family="sans-serif" font-size="14" lengthAdjust="spacing" textLength="347.2656" x="1177.95" y="355.3145">+inventoryEventListener: InventoryEventListener</text><text fill="#000000" font-family="sans-serif" font-size="14" lengthAdjust="spacing" textLength="244.2002" x="1177.95" y="371.6114">+messageBuilder: MessageBuilder</text><text fill="#000000" font-family="sans-serif" font-size="14" lengthAdjust="spacing" textLength="301.3418" x="1177.95" y="387.9082">+playerEventListener: PlayerEventListener</text><text fill="#000000" font-family="sans-serif" font-size="14" lengthAdjust="spacing" textLength="247.3379" x="1177.95" y="404.2051">+soundConfig: SoundConfiguration</text><text fill="#000000" font-family="sans-serif" font-size="14" lengthAdjust="spacing" textLength="223.1182" x="1177.95" y="420.502">+worldManager: WorldManager</text><line style="stroke:#888888;stroke-width:0.5;" x1="1172.95" x2="1673.0457" y1="427.8038" y2="427.8038"/><text fill="#000000" font-family="sans-serif" font-size="14" lengthAdjust="spacing" textLength="490.0957" x="1177.95" y="444.7989">+startUp(plugin: JavaPlugin, connectionProvider: ConnectionProvider)</text><text fill="#000000" font-family="sans-serif" font-size="14" lengthAdjust="spacing" textLength="92.8525" x="1177.95" y="461.0957">+shutDown()</text></g><!--class CommandDispatcher--><g class="entity" data-entity="CommandDispatcher" data-source-line="51" data-uid="ent0006" id="entity_CommandDispatcher"><rect fill="#FFF5CC" filter="url(#fnfx6anhely07)" height="137.75" rx="7.5" ry="7.5" style="stroke:#888888;stroke-width:0.5;" width="776.5176" x="45.74" y="593.58"/><ellipse cx="355.8421" cy="613.7128" fill="#B4A7E5" rx="11" ry="11" style="stroke:#181818;stroke-width:1;"/><path d="M351.7639,609.4784 L351.7639,607.3222 L359.1546,607.3222 L359.1546,609.4784 L356.6858,609.4784 L356.6858,617.5566 L359.1546,617.5566 L359.1546,619.7128 L351.7639,619.7128 L351.7639,617.5566 L354.2327,617.5566 L354.2327,609.4784 L351.7639,609.4784 Z " fill="#000000"/><text fill="#000000" font-family="sans-serif" font-size="12" font-style="italic" lengthAdjust="spacing" textLength="78.082" x="411.2078" y="609.7187">&#171;dispatcher&#187;</text><text fill="#000000" font-family="'Helvetica'" font-size="14" font-style="italic" lengthAdjust="spacing" textLength="147.8135" x="376.3421" y="625.5439">CommandDispatcher</text><line style="stroke:#888888;stroke-width:0.5;" x1="46.74" x2="821.2576" y1="633.8456" y2="633.8456"/><text fill="#000000" font-family="sans-serif" font-size="14" lengthAdjust="spacing" textLength="231.1504" x="51.74" y="650.8407">-ctx: CommandContextContainer</text><text fill="#000000" font-family="sans-serif" font-size="14" lengthAdjust="spacing" textLength="321.5557" x="51.74" y="667.1376">-subcommandRegistry: SubcommandRegistry</text><line style="stroke:#888888;stroke-width:0.5;" x1="46.74" x2="821.2576" y1="674.4394" y2="674.4394"/><text fill="#000000" font-family="sans-serif" font-size="14" lengthAdjust="spacing" textLength="672.0273" x="51.74" y="691.4345">-getMatchingSubcommandNames(sender: CommandSender, matchString: String): List&lt;String&gt;</text><text fill="#000000" font-family="sans-serif" font-size="14" lengthAdjust="spacing" textLength="710.8691" x="51.74" y="707.7314">+onCommand(sender: CommandSender, command: Command, label: String, args: String[]): boolean</text><text fill="#000000" font-family="sans-serif" font-size="14" lengthAdjust="spacing" textLength="764.5176" x="51.74" y="724.0282">+onTabComplete(sender: CommandSender, command: Command, alias: String, args: String[]): List&lt;String&gt;</text></g><!--class InventoryEventListener--><g class="entity" data-entity="InventoryEventListener" data-source-line="60" data-uid="ent0007" id="entity_InventoryEventListener"><rect fill="#FFF5CC" filter="url(#fnfx6anhely07)" height="137.75" rx="7.5" ry="7.5" style="stroke:#888888;stroke-width:0.5;" width="602.6387" x="857.68" y="593.58"/><ellipse cx="1073.0975" cy="613.7128" fill="#B4A7E5" rx="11" ry="11" style="stroke:#181818;stroke-width:1;"/><path d="M1069.0194,609.4784 L1069.0194,607.3222 L1076.41,607.3222 L1076.41,609.4784 L1073.9412,609.4784 L1073.9412,617.5566 L1076.41,617.5566 L1076.41,619.7128 L1069.0194,619.7128 L1069.0194,617.5566 L1071.4881,617.5566 L1071.4881,609.4784 L1069.0194,609.4784 Z " fill="#000000"/><text fill="#000000" font-family="sans-serif" font-size="12" font-style="italic" lengthAdjust="spacing" textLength="59.6133" x="1145.4427" y="609.7187">&#171;listener&#187;</text><text fill="#000000" font-family="'Helvetica'" font-size="14" font-style="italic" lengthAdjust="spacing" textLength="163.3037" x="1093.5975" y="625.5439">InventoryEventListener</text><line style="stroke:#888888;stroke-width:0.5;" x1="858.68" x2="1459.3187" y1="633.8456" y2="633.8456"/><text fill="#000000" font-family="sans-serif" font-size="14" lengthAdjust="spacing" textLength="215.5234" x="863.68" y="650.8407">-ctx: ListenerContextContainer</text><line style="stroke:#888888;stroke-width:0.5;" x1="858.68" x2="1459.3187" y1="658.1425" y2="658.1425"/><text fill="#000000" font-family="sans-serif" font-size="14" lengthAdjust="spacing" textLength="590.6387" x="863.68" y="675.1376">-cancelInventoryTransfer(event: Cancellable, player: HumanEntity, item: ItemStack)</text><text fill="#000000" font-family="sans-serif" font-size="14" lengthAdjust="spacing" textLength="329.6973" x="863.68" y="691.4345">+onInventoryClick(event: InventoryClickEvent)</text><text fill="#000000" font-family="sans-serif" font-size="14" lengthAdjust="spacing" textLength="330.9824" x="863.68" y="707.7314">+onInventoryDrag(event: InventoryDragEvent)</text><text fill="#000000" font-family="sans-serif" font-size="14" lengthAdjust="spacing" textLength="401.8027" x="863.68" y="724.0282">+onInventoryMoveItem(event: InventoryMoveItemEvent)</text></g><!--class PlayerEventListener--><g class="entity" data-entity="PlayerEventListener" data-source-line="68" data-uid="ent0008" id="entity_PlayerEventListener"><rect fill="#FFF5CC" filter="url(#fnfx6anhely07)" height="268.125" rx="7.5" ry="7.5" style="stroke:#888888;stroke-width:0.5;" width="382.7744" x="1495.61" y="528.4"/><ellipse cx="1612.7472" cy="548.5328" fill="#B4A7E5" rx="11" ry="11" style="stroke:#181818;stroke-width:1;"/><path d="M1608.6691,544.2984 L1608.6691,542.1422 L1616.0597,542.1422 L1616.0597,544.2984 L1613.591,544.2984 L1613.591,552.3766 L1616.0597,552.3766 L1616.0597,554.5328 L1608.6691,554.5328 L1608.6691,552.3766 L1611.1378,552.3766 L1611.1378,544.2984 L1608.6691,544.2984 Z " fill="#000000"/><text fill="#000000" font-family="sans-serif" font-size="12" font-style="italic" lengthAdjust="spacing" textLength="59.6133" x="1673.4406" y="544.5387">&#171;listener&#187;</text><text fill="#000000" font-family="'Helvetica'" font-size="14" font-style="italic" lengthAdjust="spacing" textLength="140" x="1633.2472" y="560.3639">PlayerEventListener</text><line style="stroke:#888888;stroke-width:0.5;" x1="1496.61" x2="1877.3844" y1="568.6656" y2="568.6656"/><text fill="#000000" font-family="sans-serif" font-size="14" lengthAdjust="spacing" textLength="215.5234" x="1501.61" y="585.6607">-ctx: ListenerContextContainer</text><text fill="#000000" font-family="sans-serif" font-size="14" lengthAdjust="spacing" textLength="267.7773" x="1501.61" y="601.9576">-deathTriggeredRespawn: Set&lt;UUID&gt;</text><text fill="#000000" font-family="sans-serif" font-size="14" lengthAdjust="spacing" textLength="216.9863" x="1501.61" y="618.2545">-localeProvider: LocaleProvider</text><line style="stroke:#888888;stroke-width:0.5;" x1="1496.61" x2="1877.3844" y1="625.5563" y2="625.5563"/><text fill="#000000" font-family="sans-serif" font-size="14" lengthAdjust="spacing" textLength="306.127" x="1501.61" y="642.5514">-getDeathLocation(player: Player): Location</text><text fill="#000000" font-family="sans-serif" font-size="14" lengthAdjust="spacing" textLength="328.5557" x="1501.61" y="658.8482">-giveDeathCompass(player: Player): ItemStack</text><text fill="#000000" font-family="sans-serif" font-size="14" lengthAdjust="spacing" textLength="370.7744" x="1501.61" y="675.1451">+onChangeWorld(event: PlayerChangedWorldEvent)</text><text fill="#000000" font-family="sans-serif" font-size="14" lengthAdjust="spacing" textLength="304.5205" x="1501.61" y="691.442">+onItemDrop(event: PlayerDropItemEvent)</text><text fill="#000000" font-family="sans-serif" font-size="14" lengthAdjust="spacing" textLength="301.041" x="1501.61" y="707.7389">+onPlayerDeath(event: PlayerDeathEvent)</text><text fill="#000000" font-family="sans-serif" font-size="14" lengthAdjust="spacing" textLength="325.623" x="1501.61" y="724.0357">+onPlayerInteract(event: PlayerInteractEvent)</text><text fill="#000000" font-family="sans-serif" font-size="14" lengthAdjust="spacing" textLength="267.2852" x="1501.61" y="740.3326">+onPlayerJoin(event: PlayerJoinEvent)</text><text fill="#000000" font-family="sans-serif" font-size="14" lengthAdjust="spacing" textLength="343.2188" x="1501.61" y="756.6295">+onPlayerRespawn(event: PlayerRespawnEvent)</text><text fill="#000000" font-family="sans-serif" font-size="14" lengthAdjust="spacing" textLength="334.3867" x="1501.61" y="772.9264">-removeDeathCompasses(inventory: Inventory)</text><text fill="#000000" font-family="sans-serif" font-size="14" lengthAdjust="spacing" textLength="300.7266" x="1501.61" y="789.2232">-resetDeathCompassTarget(player: Player)</text></g><!--class ConnectionProvider--><g class="entity" data-entity="ConnectionProvider" data-source-line="85" data-uid="ent0009" id="entity_ConnectionProvider"><rect fill="#D5E8D4" filter="url(#fnfx6anhely07)" height="105.1563" rx="7.5" ry="7.5" style="stroke:#888888;stroke-width:0.5;" width="327.8818" x="1913.06" y="609.88"/><ellipse cx="2004.0463" cy="630.0128" fill="#B4A7E5" rx="11" ry="11" style="stroke:#181818;stroke-width:1;"/><path d="M1999.9682,625.7784 L1999.9682,623.6222 L2007.3588,623.6222 L2007.3588,625.7784 L2004.8901,625.7784 L2004.8901,633.8566 L2007.3588,633.8566 L2007.3588,636.0128 L1999.9682,636.0128 L1999.9682,633.8566 L2002.437,633.8566 L2002.437,625.7784 L1999.9682,625.7784 Z " fill="#000000"/><text fill="#000000" font-family="sans-serif" font-size="12" font-style="italic" lengthAdjust="spacing" textLength="75.627" x="2055.4374" y="626.0187">&#171;repository&#187;</text><text fill="#000000" font-family="'Helvetica'" font-size="14" font-style="italic" lengthAdjust="spacing" textLength="137.4092" x="2024.5463" y="641.8439">ConnectionProvider</text><line style="stroke:#888888;stroke-width:0.5;" x1="1914.06" x2="2239.9418" y1="650.1456" y2="650.1456"/><line style="stroke:#888888;stroke-width:0.5;" x1="1914.06" x2="2239.9418" y1="658.1456" y2="658.1456"/><text fill="#000000" font-family="sans-serif" font-size="14" lengthAdjust="spacing" textLength="58.7139" x="1919.06" y="675.1407">+close()</text><text fill="#000000" font-family="sans-serif" font-size="14" lengthAdjust="spacing" textLength="225.0391" x="1919.06" y="691.4376">+connect(): ConnectionProvider</text><text fill="#000000" font-family="sans-serif" font-size="14" lengthAdjust="spacing" textLength="315.8818" x="1919.06" y="707.7345">+deathLocations(): DeathLocationRepository</text></g><!--link Bootstrap to PluginController--><g class="link" data-entity-1="Bootstrap" data-entity-2="PluginController" data-source-line="94" data-uid="lnk10" id="link_Bootstrap_PluginController"><path codeLine="94" d="M1423,205.9 C1423,224.24 1423,238.92 1423,259.17" fill="none" id="Bootstrap-to-PluginController" style="stroke:#444444;stroke-width:1.2;"/><polygon fill="#444444" points="1423,265.17,1427,256.17,1423,260.17,1419,256.17,1423,265.17" style="stroke:#444444;stroke-width:1.2;"/></g><!--link PluginController to CommandDispatcher--><g class="link" data-entity-1="PluginController" data-entity-2="CommandDispatcher" data-source-line="95" data-uid="lnk11" id="link_PluginController_CommandDispatcher"><path codeLine="95" d="M1171.51,434.31 C1068.44,462.25 948.18,495.8 840,528.4 C773.33,548.48 706.6586,569.8524 641.7386,591.2424" fill="none" id="PluginController-to-CommandDispatcher" style="stroke:#444444;stroke-width:1.2;"/><polygon fill="#444444" points="636.04,593.12,645.8397,594.1027,640.7889,591.5553,643.3362,586.5045,636.04,593.12" style="stroke:#444444;stroke-width:1.2;"/></g><!--link PluginController to ConnectionProvider--><g class="link" data-entity-1="PluginController" data-entity-2="ConnectionProvider" data-source-line="96" data-uid="lnk12" id="link_PluginController_ConnectionProvider"><path codeLine="96" d="M1674.42,437.34 C1747.79,461.78 1826.79,492.32 1896,528.4 C1938.89,550.75 1978.0017,578.9257 2011.7717,605.8957" fill="none" id="PluginController-to-ConnectionProvider" style="stroke:#444444;stroke-width:1.2;"/><polygon fill="#444444" points="2016.46,609.64,2011.9237,600.898,2012.5531,606.5198,2006.9313,607.1491,2016.46,609.64" style="stroke:#444444;stroke-width:1.2;"/></g><!--link PluginController to InventoryEventListener--><g class="link" data-entity-1="PluginController" data-entity-2="InventoryEventListener" data-source-line="97" data-uid="lnk13" id="link_PluginController_InventoryEventListener"><path codeLine="97" d="M1332.52,468.53 C1295.5,509.69 1257.6422,551.7788 1224.3122,588.8388" fill="none" id="PluginController-to-InventoryEventListener" style="stroke:#444444;stroke-width:1.2;"/><polygon fill="#444444" points="1220.3,593.3,1229.2924,589.283,1223.6435,589.5823,1223.3442,583.9334,1220.3,593.3" style="stroke:#444444;stroke-width:1.2;"/></g><!--link PluginController to PlayerEventListener--><g class="link" data-entity-1="PluginController" data-entity-2="PlayerEventListener" data-source-line="98" data-uid="lnk14" id="link_PluginController_PlayerEventListener"><path codeLine="98" d="M1513.48,468.53 C1530.72,487.7 1545.0074,503.5791 1562.9974,523.5791" fill="none" id="PluginController-to-PlayerEventListener" style="stroke:#444444;stroke-width:1.2;"/><polygon fill="#444444" points="1567.01,528.04,1563.9651,518.6737,1563.6662,524.3226,1558.0173,524.0237,1567.01,528.04" style="stroke:#444444;stroke-width:1.2;"/></g><!--SRC=[fLPjJoCt4FwUNp42gGIHL4TrL3G2f90No3Lm4GcgggeVdDrXO-7OAzkR73tTV-zuTxFnleGYDH54ddcUiJtFUEmJkBw-Xhlfrzl-5EQBFwUJnpjdQfbNBcEcsHgMB7YDj4faE512QJX- -SrzFOHPiL1jkOp0wWGzHyxI4ZMSNtYEljPgcuVxd7wgpiMA1wyIZO7pdt-fEiTAsZd_1-7yt7F5j50MuO9RWNk47paGp1ZdUcHhXADx51kqF617LKpVMisNYSL9e6GQvrCL0jzR0BULt6nNtAApAnsYpZTucNvQFrgj4p0MDIhx5gE15t9g9R2xP0P321oQalYHYQwkQ5sMo0BrpGrCURIojoB19kIQISfA2cCRbBIk9bJ8JSnii4g1n-Fn-68mQC89JbkG_uLAB1VSlZdGwDVnf_6u2QGnLePRfLFSy69qEVoSPSdLvAm_-Br_DvgdrPXB2qTKPPJ1bTl8EZY2OmpSDqrHWGcHsLMWrZ4bZo3XfViIX3009z3jTaaVPOtLB8QVO9z9vqf1MTxte4gwlwSWWAxZIWmiLtAcrOPJRdimgDaAU2oIYCj14Qi7iuebXvw1aYF9bWBRfvvfo8rd-z7o5biDT6ZDPxJcDPL4E2m4Tqkkc0fmo2mp916-iwypu9BqS4AEtEyqBv4UJ1hj1MrDnviKkqsuI3FtK1eNi5YmDzILqBEwiI2OhCZa2uzwCDyF4itSyWlSLcaHFcJ7emT_UADzACkqVOxRcN8z-C8sB4jrvuFYx_KpgyGErLQMvSiACbV052MOrlaB2x0k3bHEgrUEzbiXfYi5_6RT3-FIAqAJBFCIUCA8KgVVA4arMm6Fq3wugQWpxL6kVvgsIRj9CUCy7NPWxU1pwtePHKv_JtlWLBhAHZTUIUVSGx7o-Gfx1mHRejZ5xG3JaTcD_lgRvbagQgbCUbCis9BOiK2B7v-62SxCEzFKjbEISrUIJNes7meejTQAf3lGGKq39WCKHUI5PjAye6wZCz2kKhTmlQEJ7wSUt2Uqqv6qrASxGDVMciuh_PzRwgD-qocY3WHToRkGPMkwbKRIKBEend76mvG7jK6taXfjv_2eUTRtsMte2_yljUbjij0yehQ0T3peu6sf4SpHNZq_JuOt1L2eW0dSju9fQUoVfw4BwTokJxHtUcGhFys8NfyY2jzWoXbabrgTKWZddwmLan6cNMsNoGoVESBKKrU18WsrYiiKPwbaFeFdRhUu2iEP3i0dJYqMs39ZPpr0-gAuB1ESvG0ubwcCpuqbIXSqhbKvlTJPYWlDgpwVOd8HSyQ2sWFQgYprjZ2ZZf3M6nLgKwEltXrGUIHvbxXGndyRv7TH-_JTUphq2yyuSAaKdugvygMxl-91zZIQzXUJhu_p-yaiUvNj7qZTxatzALDxaZXK_Qbn05RRH2Fkm0kZ4TlG6lu5]--></g></svg>