<svg xmlns="http://www.w3.org/2000/svg" xmlns:xlink="http://www.w3.org/1999/xlink" contentStyleType="text/css" data-diagram-type="CLASS" height="1517px" preserveAspectRatio="none" style="width:2194px;height:1517px;background:#F9F9F9;" version="1.1" viewBox="0 0 2194 1517" width="2194px" zoomAndPan="magnify"><defs><filter height="300%" id="f1usjv9m5asf8d" width="300%" x="-1" y="-1"><feGaussianBlur result="blurOut" stdDeviation="2"/><feColorMatrix in="blurOut" result="blurOut2" type="matrix" values="0 0 0 0 0 0 0 0 0 0 0 0 0 0 0 0 0 0 .4 0"/><feOffset dx="4" dy="4" in="blurOut2" result="blurOut3"/><feBlend in="SourceGraphic" in2="blurOut3" mode="normal"/></filter></defs><g><rect fill="#F9F9F9" height="1517" style="stroke:none;stroke-width:1;" width="2194" x="0" y="0"/><!--cluster winterhavenmc--><g class="cluster" data-entity="winterhavenmc" data-source-line="34" data-uid="ent0002" id="cluster_winterhavenmc"><path d="M13.5,6 L114.7227,6 A11.25,11.25 0 0 1 122.2227,13.5 L129.2227,28.4883 L2172.5,28.4883 A7.5,7.5 0 0 1 2180,35.9883 L2180,1495.41 A7.5,7.5 0 0 1 2172.5,1502.91 L13.5,1502.91 A7.5,7.5 0 0 1 6,1495.41 L6,13.5 A7.5,7.5 0 0 1 13.5,6" fill="#ECECEC" filter="url(#f1usjv9m5asf8d)" style="stroke:#000000;stroke-width:1.5;"/><line style="stroke:#000000;stroke-width:1.5;" x1="6" x2="129.2227" y1="28.4883" y2="28.4883"/><text fill="#000000" font-family="sans-serif" font-size="14" font-weight="bold" lengthAdjust="spacing" textLength="110.2227" x="10" y="21.5352">winterhavenmc</text></g><!--cluster deathcompass--><g class="cluster" data-entity="deathcompass" data-source-line="35" data-uid="ent0003" id="cluster_deathcompass"><path d="M37.5,49 L132.3857,49 A11.25,11.25 0 0 1 139.8857,56.5 L146.8857,71.4883 L2148.5,71.4883 A7.5,7.5 0 0 1 2156,78.9883 L2156,1471.41 A7.5,7.5 0 0 1 2148.5,1478.91 L37.5,1478.91 A7.5,7.5 0 0 1 30,1471.41 L30,56.5 A7.5,7.5 0 0 1 37.5,49" fill="#D8D8D8" filter="url(#f1usjv9m5asf8d)" style="stroke:#000000;stroke-width:1.5;"/><line style="stroke:#000000;stroke-width:1.5;" x1="30" x2="146.8857" y1="71.4883" y2="71.4883"/><text fill="#000000" font-family="sans-serif" font-size="14" font-weight="bold" lengthAdjust="spacing" textLength="103.8857" x="34" y="64.5352">deathcompass</text></g><!--cluster bootstrap--><g class="cluster" data-entity="bootstrap" data-source-line="39" data-uid="ent0004" id="cluster_bootstrap"><path d="M1136.5,100 L1197.7939,100 A11.25,11.25 0 0 1 1205.2939,107.5 L1212.2939,122.4883 L1491.5,122.4883 A7.5,7.5 0 0 1 1499,129.9883 L1499,313.05 A7.5,7.5 0 0 1 1491.5,320.55 L1136.5,320.55 A7.5,7.5 0 0 1 1129,313.05 L1129,107.5 A7.5,7.5 0 0 1 1136.5,100" fill="#FFFFFF" filter="url(#f1usjv9m5asf8d)" style="stroke:#000000;stroke-width:1.5;"/><line style="stroke:#000000;stroke-width:1.5;" x1="1129" x2="1212.2939" y1="122.4883" y2="122.4883"/><text fill="#000000" font-family="sans-serif" font-size="14" font-weight="bold" lengthAdjust="spacing" textLength="70.2939" x="1133" y="115.5352">bootstrap</text></g><!--cluster core--><g class="cluster" data-entity="core" data-source-line="52" data-uid="ent0006" id="cluster_core"><path d="M69.5,344.55 L91.46,344.55 A11.25,11.25 0 0 1 98.96,352.05 L105.96,367.0383 L2116.5,367.0383 A7.5,7.5 0 0 1 2124,374.5383 L2124,1194.86 A7.5,7.5 0 0 1 2116.5,1202.36 L69.5,1202.36 A7.5,7.5 0 0 1 62,1194.86 L62,352.05 A7.5,7.5 0 0 1 69.5,344.55" fill="#FFFFFF" filter="url(#f1usjv9m5asf8d)" style="stroke:#000000;stroke-width:1.5;"/><line style="stroke:#000000;stroke-width:1.5;" x1="62" x2="105.96" y1="367.0383" y2="367.0383"/><text fill="#000000" font-family="sans-serif" font-size="14" font-weight="bold" lengthAdjust="spacing" textLength="30.96" x="66" y="360.0852">core</text></g><!--cluster infrastructure--><g class="cluster" data-entity="infrastructure" data-source-line="53" data-uid="ent0007" id="cluster_infrastructure"><path d="M1063.5,387.55 L1154.6807,387.55 A11.25,11.25 0 0 1 1162.1807,395.05 L1169.1807,410.0383 L1564.5,410.0383 A7.5,7.5 0 0 1 1572,417.5383 L1572,797.18 A7.5,7.5 0 0 1 1564.5,804.68 L1063.5,804.68 A7.5,7.5 0 0 1 1056,797.18 L1056,395.05 A7.5,7.5 0 0 1 1063.5,387.55" fill="#FFFFFF" filter="url(#f1usjv9m5asf8d)" style="stroke:#000000;stroke-width:1.5;"/><line style="stroke:#000000;stroke-width:1.5;" x1="1056" x2="1169.1807" y1="410.0383" y2="410.0383"/><text fill="#000000" font-family="sans-serif" font-size="14" font-weight="bold" lengthAdjust="spacing" textLength="100.1807" x="1060" y="403.0852">infrastructure</text></g><!--cluster domain--><g class="cluster" data-entity="domain" data-source-line="72" data-uid="ent0010" id="cluster_domain"><path d="M1088.5,828.68 L1133.2715,828.68 A11.25,11.25 0 0 1 1140.7715,836.18 L1147.7715,851.1683 L1515.5,851.1683 A7.5,7.5 0 0 1 1523,858.6683 L1523,926.31 A7.5,7.5 0 0 1 1515.5,933.81 L1088.5,933.81 A7.5,7.5 0 0 1 1081,926.31 L1081,836.18 A7.5,7.5 0 0 1 1088.5,828.68" fill="#FFFFFF" filter="url(#f1usjv9m5asf8d)" style="stroke:#000000;stroke-width:1.5;"/><line style="stroke:#000000;stroke-width:1.5;" x1="1081" x2="1147.7715" y1="851.1683" y2="851.1683"/><text fill="#000000" font-family="sans-serif" font-size="14" font-weight="bold" lengthAdjust="spacing" textLength="53.7715" x="1085" y="844.2152">domain</text></g><!--cluster ports--><g class="cluster" data-entity="ports" data-source-line="81" data-uid="ent0014" id="cluster_ports"><path d="M93.5,957.81 L122.6719,957.81 A11.25,11.25 0 0 1 130.1719,965.31 L137.1719,980.2983 L2092.5,980.2983 A7.5,7.5 0 0 1 2100,987.7983 L2100,1170.86 A7.5,7.5 0 0 1 2092.5,1178.36 L93.5,1178.36 A7.5,7.5 0 0 1 86,1170.86 L86,965.31 A7.5,7.5 0 0 1 93.5,957.81" fill="#FFFFFF" filter="url(#f1usjv9m5asf8d)" style="stroke:#000000;stroke-width:1.5;"/><line style="stroke:#000000;stroke-width:1.5;" x1="86" x2="137.1719" y1="980.2983" y2="980.2983"/><text fill="#000000" font-family="sans-serif" font-size="14" font-weight="bold" lengthAdjust="spacing" textLength="38.1719" x="90" y="973.3452">ports</text></g><!--cluster adapters--><g class="cluster" data-entity="adapters" data-source-line="114" data-uid="ent0019" id="cluster_adapters"><path d="M93.5,1226.36 L147.6709,1226.36 A11.25,11.25 0 0 1 155.1709,1233.86 L162.1709,1248.8483 L2092.5,1248.8483 A7.5,7.5 0 0 1 2100,1256.3483 L2100,1439.41 A7.5,7.5 0 0 1 2092.5,1446.91 L93.5,1446.91 A7.5,7.5 0 0 1 86,1439.41 L86,1233.86 A7.5,7.5 0 0 1 93.5,1226.36" fill="#FFFFFF" filter="url(#f1usjv9m5asf8d)" style="stroke:#000000;stroke-width:1.5;"/><line style="stroke:#000000;stroke-width:1.5;" x1="86" x2="162.1709" y1="1248.8483" y2="1248.8483"/><text fill="#000000" font-family="sans-serif" font-size="14" font-weight="bold" lengthAdjust="spacing" textLength="63.1709" x="90" y="1241.8952">adapters</text></g><!--class Bootstrap--><g class="entity" data-entity="Bootstrap" data-source-line="40" data-uid="ent0005" id="entity_Bootstrap"><rect fill="#EFEFFF" filter="url(#f1usjv9m5asf8d)" height="169.5508" rx="7.5" ry="7.5" style="stroke:#888888;stroke-width:0.5;" width="337.3154" x="1145.34" y="135"/><ellipse cx="1277.2213" cy="154.0664" fill="#ADD1B2" rx="11" ry="11" style="stroke:#181818;stroke-width:1;"/><path d="M1280.1945,159.7095 Q1279.6134,160.0083 1278.9743,160.1577 Q1278.3351,160.3071 1277.6296,160.3071 Q1275.1227,160.3071 1273.8029,158.6553 Q1272.4831,157.0034 1272.4831,153.8823 Q1272.4831,150.7529 1273.8029,149.1011 Q1275.1227,147.4492 1277.6296,147.4492 Q1278.3351,147.4492 1278.9826,147.5986 Q1279.63,147.748 1280.1945,148.0469 L1280.1945,150.7695 Q1279.5636,150.1885 1278.9701,149.9187 Q1278.3766,149.6489 1277.7458,149.6489 Q1276.401,149.6489 1275.7162,150.7156 Q1275.0314,151.7822 1275.0314,153.8823 Q1275.0314,155.9741 1275.7162,157.0408 Q1276.401,158.1074 1277.7458,158.1074 Q1278.3766,158.1074 1278.9701,157.8376 Q1279.5636,157.5679 1280.1945,156.9868 Z " fill="#000000"/><text fill="#000000" font-family="sans-serif" font-size="12" font-style="italic" lengthAdjust="spacing" textLength="69.0527" x="1295.7213" y="151.6016">&#171;bootstrap&#187;</text><text fill="#000000" font-family="Helvetica" font-size="14" lengthAdjust="spacing" textLength="59.9238" x="1300.2858" y="164.9131">Bootstrap</text><line style="stroke:#888888;stroke-width:0.5;" x1="1146.34" x2="1481.6554" y1="173.1328" y2="173.1328"/><text fill="#000000" font-family="sans-serif" font-size="14" lengthAdjust="spacing" textLength="300.1865" x="1151.34" y="190.668">#commandDispatcher: CommandDispatcher</text><text fill="#000000" font-family="sans-serif" font-size="14" lengthAdjust="spacing" textLength="325.3154" x="1151.34" y="207.1563">#inventoryEventListener: InventoryEventListener</text><text fill="#000000" font-family="sans-serif" font-size="14" lengthAdjust="spacing" textLength="280.4238" x="1151.34" y="223.6445">#playerEventListener: PlayerEventListener</text><text fill="#000000" font-family="sans-serif" font-size="14" lengthAdjust="spacing" textLength="281.0049" x="1151.34" y="240.1328">#connectionProvider: ConnectionProvider</text><text fill="#000000" font-family="sans-serif" font-size="14" lengthAdjust="spacing" textLength="238.9844" x="1151.34" y="256.6211">#pluginController: PluginController</text><line style="stroke:#888888;stroke-width:0.5;" x1="1146.34" x2="1481.6554" y1="263.5742" y2="263.5742"/><text fill="#000000" font-family="sans-serif" font-size="14" lengthAdjust="spacing" textLength="82.1885" x="1151.34" y="281.1094">+onEnable()</text><text fill="#000000" font-family="sans-serif" font-size="14" lengthAdjust="spacing" textLength="87.582" x="1151.34" y="297.5977">+onDisable()</text></g><!--class PluginController--><g class="entity" data-entity="PluginController" data-source-line="54" data-uid="ent0008" id="entity_PluginController"><rect fill="#DCF8FF" filter="url(#f1usjv9m5asf8d)" height="136.5742" rx="7.5" ry="7.5" style="stroke:#888888;stroke-width:0.5;" width="483.5771" x="1072.21" y="422.55"/><ellipse cx="1259.9454" cy="441.6164" fill="#B4A7E5" rx="11" ry="11" style="stroke:#181818;stroke-width:1;"/><path d="M1255.8731,437.3815 L1255.8731,435.2233 L1263.2525,435.2233 L1263.2525,437.3815 L1260.7871,437.3815 L1260.7871,445.4582 L1263.2525,445.4582 L1263.2525,447.6164 L1255.8731,447.6164 L1255.8731,445.4582 L1258.3384,445.4582 L1258.3384,437.3815 Z " fill="#000000"/><text fill="#000000" font-family="sans-serif" font-size="12" font-style="italic" lengthAdjust="spacing" textLength="92.2441" x="1284.1265" y="439.1516">&#171;controllerPort&#187;</text><text fill="#000000" font-family="Helvetica" font-size="14" font-style="italic" lengthAdjust="spacing" textLength="99.6064" x="1280.4454" y="452.4631">PluginController</text><line style="stroke:#888888;stroke-width:0.5;" x1="1073.21" x2="1554.7871" y1="460.6828" y2="460.6828"/><text fill="#000000" font-family="sans-serif" font-size="14" lengthAdjust="spacing" textLength="306.8926" x="1078.21" y="478.218">+commandDispatcher: CommandDispatcher,</text><text fill="#000000" font-family="sans-serif" font-size="14" lengthAdjust="spacing" textLength="332.0215" x="1078.21" y="494.7063">+inventoryEventListener: InventoryEventListener,</text><line style="stroke:#888888;stroke-width:0.5;" x1="1073.21" x2="1554.7871" y1="501.6594" y2="501.6594"/><text fill="#000000" font-family="sans-serif" font-size="14" lengthAdjust="spacing" textLength="471.5771" x="1078.21" y="519.1945">+startUp(plugin: JavaPlugin, connectionProvider: ConnectionProvider,</text><text fill="#000000" font-family="sans-serif" font-size="14" lengthAdjust="spacing" textLength="287.2529" x="1078.21" y="535.6828">+playerEventListener: PlayerEventListener)</text><text fill="#000000" font-family="sans-serif" font-size="14" lengthAdjust="spacing" textLength="88.5459" x="1078.21" y="552.1711">+shutDown()</text></g><!--class DeathCompassPluginController--><g class="entity" data-entity="DeathCompassPluginController" data-source-line="61" data-uid="ent0009" id="entity_DeathCompassPluginController"><rect fill="#ADD8E6" filter="url(#f1usjv9m5asf8d)" height="169.5508" rx="7.5" ry="7.5" style="stroke:#888888;stroke-width:0.5;" width="339.5918" x="1144.2" y="619.12"/><ellipse cx="1211.698" cy="638.1864" fill="#ADD1B2" rx="11" ry="11" style="stroke:#181818;stroke-width:1;"/><path d="M1214.6712,643.8295 Q1214.0901,644.1283 1213.451,644.2777 Q1212.8118,644.4271 1212.1063,644.4271 Q1209.5994,644.4271 1208.2796,642.7753 Q1206.9598,641.1234 1206.9598,638.0023 Q1206.9598,634.8729 1208.2796,633.2211 Q1209.5994,631.5692 1212.1063,631.5692 Q1212.8118,631.5692 1213.4593,631.7186 Q1214.1067,631.868 1214.6712,632.1669 L1214.6712,634.8895 Q1214.0403,634.3085 1213.4468,634.0387 Q1212.8533,633.7689 1212.2225,633.7689 Q1210.8777,633.7689 1210.1929,634.8356 Q1209.5081,635.9022 1209.5081,638.0023 Q1209.5081,640.0941 1210.1929,641.1608 Q1210.8777,642.2274 1212.2225,642.2274 Q1212.8533,642.2274 1213.4468,641.9576 Q1214.0403,641.6879 1214.6712,641.1068 Z " fill="#000000"/><text fill="#000000" font-family="sans-serif" font-size="12" font-style="italic" lengthAdjust="spacing" textLength="68.8418" x="1295.825" y="635.7216">&#171;controller&#187;</text><text fill="#000000" font-family="Helvetica" font-size="14" lengthAdjust="spacing" textLength="196.0957" x="1232.198" y="649.0331">DeathCompassPluginController</text><line style="stroke:#888888;stroke-width:0.5;" x1="1145.2" x2="1482.7918" y1="657.2528" y2="657.2528"/><text fill="#000000" font-family="sans-serif" font-size="14" lengthAdjust="spacing" textLength="302.4629" x="1150.2" y="674.788">+commandDispatcher: CommandDispatcher</text><text fill="#000000" font-family="sans-serif" font-size="14" lengthAdjust="spacing" textLength="327.5918" x="1150.2" y="691.2763">+inventoryEventListener: InventoryEventListener</text><text fill="#000000" font-family="sans-serif" font-size="14" lengthAdjust="spacing" textLength="283.2813" x="1150.2" y="707.7645">+connectionProvider: ConnectionProvider</text><text fill="#000000" font-family="sans-serif" font-size="14" lengthAdjust="spacing" textLength="232.1348" x="1150.2" y="724.2528">+messageBuilder: MessageBuilder</text><text fill="#000000" font-family="sans-serif" font-size="14" lengthAdjust="spacing" textLength="282.7002" x="1150.2" y="740.7411">+playerEventListener: PlayerEventListener</text><text fill="#000000" font-family="sans-serif" font-size="14" lengthAdjust="spacing" textLength="242.7578" x="1150.2" y="757.2294">+soundConfig: SoundConfiguration</text><text fill="#000000" font-family="sans-serif" font-size="14" lengthAdjust="spacing" textLength="214.0605" x="1150.2" y="773.7177">+worldManager: WorldManager</text><line style="stroke:#888888;stroke-width:0.5;" x1="1145.2" x2="1482.7918" y1="780.6708" y2="780.6708"/></g><!--class CommandLogic--><g class="entity" data-entity="CommandLogic" data-source-line="73" data-uid="ent0011" id="entity_CommandLogic"><rect fill="#FFB0B0" filter="url(#f1usjv9m5asf8d)" height="54.1328" rx="7.5" ry="7.5" style="stroke:#888888;stroke-width:0.5;" width="130.0479" x="1096.98" y="863.68"/><ellipse cx="1111.98" cy="882.7464" fill="#ADD1B2" rx="11" ry="11" style="stroke:#181818;stroke-width:1;"/><path d="M1114.9531,888.3895 Q1114.3721,888.6883 1113.7329,888.8377 Q1113.0938,888.9871 1112.3882,888.9871 Q1109.8814,888.9871 1108.5615,887.3353 Q1107.2417,885.6834 1107.2417,882.5623 Q1107.2417,879.4329 1108.5615,877.7811 Q1109.8814,876.1292 1112.3882,876.1292 Q1113.0938,876.1292 1113.7412,876.2786 Q1114.3887,876.428 1114.9531,876.7269 L1114.9531,879.4495 Q1114.3223,878.8685 1113.7288,878.5987 Q1113.1353,878.3289 1112.5044,878.3289 Q1111.1597,878.3289 1110.4749,879.3956 Q1109.7901,880.4622 1109.7901,882.5623 Q1109.7901,884.6541 1110.4749,885.7208 Q1111.1597,886.7874 1112.5044,886.7874 Q1113.1353,886.7874 1113.7288,886.5176 Q1114.3223,886.2479 1114.9531,885.6668 Z " fill="#000000"/><text fill="#000000" font-family="sans-serif" font-size="12" font-style="italic" lengthAdjust="spacing" textLength="100.9922" x="1124.5078" y="880.2816">&#171;commandLogic&#187;</text><text fill="#000000" font-family="Helvetica" font-size="14" lengthAdjust="spacing" textLength="98.0479" x="1125.98" y="893.5931">CommandLogic</text><line style="stroke:#888888;stroke-width:0.5;" x1="1097.98" x2="1226.0279" y1="901.8128" y2="901.8128"/><line style="stroke:#888888;stroke-width:0.5;" x1="1097.98" x2="1226.0279" y1="909.8128" y2="909.8128"/></g><!--class EventLogic--><g class="entity" data-entity="EventLogic" data-source-line="75" data-uid="ent0012" id="entity_EventLogic"><rect fill="#F0E68C" filter="url(#f1usjv9m5asf8d)" height="54.1328" rx="7.5" ry="7.5" style="stroke:#888888;stroke-width:0.5;" width="102.959" x="1262.52" y="863.68"/><ellipse cx="1277.52" cy="882.7464" fill="#ADD1B2" rx="11" ry="11" style="stroke:#181818;stroke-width:1;"/><path d="M1280.4931,888.3895 Q1279.9121,888.6883 1279.2729,888.8377 Q1278.6338,888.9871 1277.9282,888.9871 Q1275.4214,888.9871 1274.1015,887.3353 Q1272.7817,885.6834 1272.7817,882.5623 Q1272.7817,879.4329 1274.1015,877.7811 Q1275.4214,876.1292 1277.9282,876.1292 Q1278.6338,876.1292 1279.2812,876.2786 Q1279.9287,876.428 1280.4931,876.7269 L1280.4931,879.4495 Q1279.8623,878.8685 1279.2688,878.5987 Q1278.6753,878.3289 1278.0444,878.3289 Q1276.6997,878.3289 1276.0149,879.3956 Q1275.3301,880.4622 1275.3301,882.5623 Q1275.3301,884.6541 1276.0149,885.7208 Q1276.6997,886.7874 1278.0444,886.7874 Q1278.6753,886.7874 1279.2688,886.5176 Q1279.8623,886.2479 1280.4931,885.6668 Z " fill="#000000"/><text fill="#000000" font-family="sans-serif" font-size="12" font-style="italic" lengthAdjust="spacing" textLength="74.959" x="1289.52" y="880.2816">&#171;eventLogic&#187;</text><text fill="#000000" font-family="Helvetica" font-size="14" lengthAdjust="spacing" textLength="69.2686" x="1292.3652" y="893.5931">EventLogic</text><line style="stroke:#888888;stroke-width:0.5;" x1="1263.52" x2="1364.479" y1="901.8128" y2="901.8128"/><line style="stroke:#888888;stroke-width:0.5;" x1="1263.52" x2="1364.479" y1="909.8128" y2="909.8128"/></g><!--class Persistence--><g class="entity" data-entity="Persistence" data-source-line="77" data-uid="ent0013" id="entity_Persistence"><rect fill="#A7FFA4" filter="url(#f1usjv9m5asf8d)" height="54.1328" rx="7.5" ry="7.5" style="stroke:#888888;stroke-width:0.5;" width="106.8789" x="1400.56" y="863.68"/><ellipse cx="1415.56" cy="882.7464" fill="#ADD1B2" rx="11" ry="11" style="stroke:#181818;stroke-width:1;"/><path d="M1418.5331,888.3895 Q1417.9521,888.6883 1417.3129,888.8377 Q1416.6738,888.9871 1415.9682,888.9871 Q1413.4614,888.9871 1412.1415,887.3353 Q1410.8217,885.6834 1410.8217,882.5623 Q1410.8217,879.4329 1412.1415,877.7811 Q1413.4614,876.1292 1415.9682,876.1292 Q1416.6738,876.1292 1417.3212,876.2786 Q1417.9687,876.428 1418.5331,876.7269 L1418.5331,879.4495 Q1417.9023,878.8685 1417.3088,878.5987 Q1416.7153,878.3289 1416.0844,878.3289 Q1414.7397,878.3289 1414.0549,879.3956 Q1413.3701,880.4622 1413.3701,882.5623 Q1413.3701,884.6541 1414.0549,885.7208 Q1414.7397,886.7874 1416.0844,886.7874 Q1416.7153,886.7874 1417.3088,886.5176 Q1417.9023,886.2479 1418.5331,885.6668 Z " fill="#000000"/><text fill="#000000" font-family="sans-serif" font-size="12" font-style="italic" lengthAdjust="spacing" textLength="78.8789" x="1427.56" y="880.2816">&#171;persistence&#187;</text><text fill="#000000" font-family="Helvetica" font-size="14" lengthAdjust="spacing" textLength="73.1445" x="1430.4272" y="893.5931">Persistence</text><line style="stroke:#888888;stroke-width:0.5;" x1="1401.56" x2="1506.4389" y1="901.8128" y2="901.8128"/><line style="stroke:#888888;stroke-width:0.5;" x1="1401.56" x2="1506.4389" y1="909.8128" y2="909.8128"/></g><!--class CommandDispatcher--><g class="entity" data-entity="CommandDispatcher" data-source-line="82" data-uid="ent0015" id="entity_CommandDispatcher"><rect fill="#FFE1E1" filter="url(#f1usjv9m5asf8d)" height="103.5977" rx="7.5" ry="7.5" style="stroke:#888888;stroke-width:0.5;" width="744.8125" x="101.59" y="1025.79"/><ellipse cx="403.9982" cy="1044.8564" fill="#B4A7E5" rx="11" ry="11" style="stroke:#181818;stroke-width:1;"/><path d="M399.9259,1040.6215 L399.9259,1038.4633 L407.3053,1038.4633 L407.3053,1040.6215 L404.84,1040.6215 L404.84,1048.6982 L407.3053,1048.6982 L407.3053,1050.8564 L399.9259,1050.8564 L399.9259,1048.6982 L402.3913,1048.6982 L402.3913,1040.6215 Z " fill="#000000"/><text fill="#000000" font-family="sans-serif" font-size="12" font-style="italic" lengthAdjust="spacing" textLength="96.9727" x="441.7599" y="1042.3916">&#171;dispatcherPort&#187;</text><text fill="#000000" font-family="Helvetica" font-size="14" font-style="italic" lengthAdjust="spacing" textLength="131.4961" x="424.4982" y="1055.7031">CommandDispatcher</text><line style="stroke:#888888;stroke-width:0.5;" x1="102.59" x2="845.4025" y1="1063.9228" y2="1063.9228"/><line style="stroke:#888888;stroke-width:0.5;" x1="102.59" x2="845.4025" y1="1071.9228" y2="1071.9228"/><text fill="#000000" font-family="sans-serif" font-size="14" lengthAdjust="spacing" textLength="413.1572" x="107.59" y="1089.458">+init(ctx: CommandContextContainer): CommandDispatcher</text><text fill="#000000" font-family="sans-serif" font-size="14" lengthAdjust="spacing" textLength="681.9326" x="107.59" y="1105.9463">+onCommand(sender: CommandSender, command: Command, label: String, args: String[]): boolean</text><text fill="#000000" font-family="sans-serif" font-size="14" lengthAdjust="spacing" textLength="732.8125" x="107.59" y="1122.4345">+onTabComplete(sender: CommandSender, command: Command, alias: String, args: String[]): List&lt;String&gt;</text></g><!--class InventoryEventListener--><g class="entity" data-entity="InventoryEventListener" data-source-line="88" data-uid="ent0016" id="entity_InventoryEventListener"><rect fill="#FFF5CC" filter="url(#f1usjv9m5asf8d)" height="120.0859" rx="7.5" ry="7.5" style="stroke:#888888;stroke-width:0.5;" width="420.7002" x="881.65" y="1017.54"/><ellipse cx="1016.1539" cy="1036.6064" fill="#B4A7E5" rx="11" ry="11" style="stroke:#181818;stroke-width:1;"/><path d="M1012.0816,1032.3715 L1012.0816,1030.2133 L1019.461,1030.2133 L1019.461,1032.3715 L1016.9957,1032.3715 L1016.9957,1040.4482 L1019.461,1040.4482 L1019.461,1042.6064 L1012.0816,1042.6064 L1012.0816,1040.4482 L1014.547,1040.4482 L1014.547,1032.3715 Z " fill="#000000"/><text fill="#000000" font-family="sans-serif" font-size="12" font-style="italic" lengthAdjust="spacing" textLength="79.248" x="1068.6261" y="1034.1416">&#171;listenerPort&#187;</text><text fill="#000000" font-family="Helvetica" font-size="14" font-style="italic" lengthAdjust="spacing" textLength="143.1924" x="1036.6539" y="1047.4531">InventoryEventListener</text><line style="stroke:#888888;stroke-width:0.5;" x1="882.65" x2="1301.3502" y1="1055.6728" y2="1055.6728"/><line style="stroke:#888888;stroke-width:0.5;" x1="882.65" x2="1301.3502" y1="1063.6728" y2="1063.6728"/><text fill="#000000" font-family="sans-serif" font-size="14" lengthAdjust="spacing" textLength="408.7002" x="887.65" y="1081.208">+init(ctx: ListenerContextContainer): InventoryEventListener</text><text fill="#000000" font-family="sans-serif" font-size="14" lengthAdjust="spacing" textLength="312.6484" x="887.65" y="1097.6963">+onInventoryClick(event: InventoryClickEvent)</text><text fill="#000000" font-family="sans-serif" font-size="14" lengthAdjust="spacing" textLength="311.7324" x="887.65" y="1114.1845">+onInventoryDrag(event: InventoryDragEvent)</text><text fill="#000000" font-family="sans-serif" font-size="14" lengthAdjust="spacing" textLength="378.0684" x="887.65" y="1130.6728">+onInventoryMoveItem(event: InventoryMoveItemEvent)</text></g><!--class PlayerEventListener--><g class="entity" data-entity="PlayerEventListener" data-source-line="95" data-uid="ent0017" id="entity_PlayerEventListener"><rect fill="#FFF5CC" filter="url(#f1usjv9m5asf8d)" height="169.5508" rx="7.5" ry="7.5" style="stroke:#888888;stroke-width:0.5;" width="397.7246" x="1337.14" y="992.81"/><ellipse cx="1469.1078" cy="1011.8764" fill="#B4A7E5" rx="11" ry="11" style="stroke:#181818;stroke-width:1;"/><path d="M1465.0355,1007.6415 L1465.0355,1005.4833 L1472.4149,1005.4833 L1472.4149,1007.6415 L1469.9496,1007.6415 L1469.9496,1015.7182 L1472.4149,1015.7182 L1472.4149,1017.8764 L1465.0355,1017.8764 L1465.0355,1015.7182 L1467.5008,1015.7182 L1467.5008,1007.6415 Z " fill="#000000"/><text fill="#000000" font-family="sans-serif" font-size="12" font-style="italic" lengthAdjust="spacing" textLength="79.248" x="1512.6283" y="1009.4116">&#171;listenerPort&#187;</text><text fill="#000000" font-family="Helvetica" font-size="14" font-style="italic" lengthAdjust="spacing" textLength="125.2891" x="1489.6078" y="1022.7231">PlayerEventListener</text><line style="stroke:#888888;stroke-width:0.5;" x1="1338.14" x2="1733.8646" y1="1030.9428" y2="1030.9428"/><line style="stroke:#888888;stroke-width:0.5;" x1="1338.14" x2="1733.8646" y1="1038.9428" y2="1038.9428"/><text fill="#000000" font-family="sans-serif" font-size="14" lengthAdjust="spacing" textLength="385.7246" x="1343.14" y="1056.478">+init(ctx: ListenerContextContainer): PlayerEventListener</text><text fill="#000000" font-family="sans-serif" font-size="14" lengthAdjust="spacing" textLength="349.8564" x="1343.14" y="1072.9663">+onChangeWorld(event: PlayerChangedWorldEvent)</text><text fill="#000000" font-family="sans-serif" font-size="14" lengthAdjust="spacing" textLength="287.6016" x="1343.14" y="1089.4545">+onItemDrop(event: PlayerDropItemEvent)</text><text fill="#000000" font-family="sans-serif" font-size="14" lengthAdjust="spacing" textLength="280.3145" x="1343.14" y="1105.9428">+onPlayerDeath(event: PlayerDeathEvent)</text><text fill="#000000" font-family="sans-serif" font-size="14" lengthAdjust="spacing" textLength="303.6797" x="1343.14" y="1122.4311">+onPlayerInteract(event: PlayerInteractEvent)</text><text fill="#000000" font-family="sans-serif" font-size="14" lengthAdjust="spacing" textLength="251.8086" x="1343.14" y="1138.9194">+onPlayerJoin(event: PlayerJoinEvent)</text><text fill="#000000" font-family="sans-serif" font-size="14" lengthAdjust="spacing" textLength="320.0449" x="1343.14" y="1155.4077">+onPlayerRespawn(event: PlayerRespawnEvent)</text></g><!--class ConnectionProvider--><g class="entity" data-entity="ConnectionProvider" data-source-line="105" data-uid="ent0018" id="entity_ConnectionProvider"><rect fill="#DDFFDD" filter="url(#f1usjv9m5asf8d)" height="103.5977" rx="7.5" ry="7.5" style="stroke:#888888;stroke-width:0.5;" width="313.6426" x="1770.18" y="1025.79"/><ellipse cx="1861.2723" cy="1044.8564" fill="#B4A7E5" rx="11" ry="11" style="stroke:#181818;stroke-width:1;"/><path d="M1857.2,1040.6215 L1857.2,1038.4633 L1864.5794,1038.4633 L1864.5794,1040.6215 L1862.1141,1040.6215 L1862.1141,1048.6982 L1864.5794,1048.6982 L1864.5794,1050.8564 L1857.2,1050.8564 L1857.2,1048.6982 L1859.6654,1048.6982 L1859.6654,1040.6215 Z " fill="#000000"/><text fill="#000000" font-family="sans-serif" font-size="12" font-style="italic" lengthAdjust="spacing" textLength="95.1211" x="1895.6907" y="1042.3916">&#171;repositoryPort&#187;</text><text fill="#000000" font-family="Helvetica" font-size="14" font-style="italic" lengthAdjust="spacing" textLength="122.958" x="1881.7723" y="1055.7031">ConnectionProvider</text><line style="stroke:#888888;stroke-width:0.5;" x1="1771.18" x2="2082.8226" y1="1063.9228" y2="1063.9228"/><line style="stroke:#888888;stroke-width:0.5;" x1="1771.18" x2="2082.8226" y1="1071.9228" y2="1071.9228"/><text fill="#000000" font-family="sans-serif" font-size="14" lengthAdjust="spacing" textLength="54.9883" x="1776.18" y="1089.458">+close()</text><text fill="#000000" font-family="sans-serif" font-size="14" lengthAdjust="spacing" textLength="215.3525" x="1776.18" y="1105.9463">+connect(): ConnectionProvider</text><text fill="#000000" font-family="sans-serif" font-size="14" lengthAdjust="spacing" textLength="301.6426" x="1776.18" y="1122.4345">+deathLocations(): DeathLocationRepository</text></g><!--class BukkitCommandDispatcher--><g class="entity" data-entity="BukkitCommandDispatcher" data-source-line="115" data-uid="ent0020" id="entity_BukkitCommandDispatcher"><rect fill="#FFB0B0" filter="url(#f1usjv9m5asf8d)" height="103.5977" rx="7.5" ry="7.5" style="stroke:#888888;stroke-width:0.5;" width="744.8125" x="101.59" y="1294.34"/><ellipse cx="384.9362" cy="1313.4064" fill="#ADD1B2" rx="11" ry="11" style="stroke:#181818;stroke-width:1;"/><path d="M387.9093,1319.0495 Q387.3283,1319.3483 386.6891,1319.4977 Q386.05,1319.6471 385.3444,1319.6471 Q382.8376,1319.6471 381.5177,1317.9953 Q380.1979,1316.3434 380.1979,1313.2223 Q380.1979,1310.0929 381.5177,1308.4411 Q382.8376,1306.7892 385.3444,1306.7892 Q386.05,1306.7892 386.6974,1306.9386 Q387.3449,1307.088 387.9093,1307.3869 L387.9093,1310.1095 Q387.2785,1309.5285 386.685,1309.2587 Q386.0915,1308.9889 385.4606,1308.9889 Q384.1159,1308.9889 383.4311,1310.0556 Q382.7463,1311.1222 382.7463,1313.2223 Q382.7463,1315.3141 383.4311,1316.3808 Q384.1159,1317.4474 385.4606,1317.4474 Q386.0915,1317.4474 386.685,1317.1776 Q387.2785,1316.9079 387.9093,1316.3268 Z " fill="#000000"/><text fill="#000000" font-family="sans-serif" font-size="12" font-style="italic" lengthAdjust="spacing" textLength="73.5703" x="453.4611" y="1310.9416">&#171;dispatcher&#187;</text><text fill="#000000" font-family="Helvetica" font-size="14" lengthAdjust="spacing" textLength="169.6201" x="405.4362" y="1324.2531">BukkitCommandDispatcher</text><line style="stroke:#888888;stroke-width:0.5;" x1="102.59" x2="845.4025" y1="1332.4728" y2="1332.4728"/><line style="stroke:#888888;stroke-width:0.5;" x1="102.59" x2="845.4025" y1="1340.4728" y2="1340.4728"/><text fill="#000000" font-family="sans-serif" font-size="14" lengthAdjust="spacing" textLength="413.1572" x="107.59" y="1358.008">+init(ctx: CommandContextContainer): CommandDispatcher</text><text fill="#000000" font-family="sans-serif" font-size="14" lengthAdjust="spacing" textLength="681.9326" x="107.59" y="1374.4963">+onCommand(sender: CommandSender, command: Command, label: String, args: String[]): boolean</text><text fill="#000000" font-family="sans-serif" font-size="14" lengthAdjust="spacing" textLength="732.8125" x="107.59" y="1390.9845">+onTabComplete(sender: CommandSender, command: Command, alias: String, args: String[]): List&lt;String&gt;</text></g><!--class BukkitInventoryEventListener--><g class="entity" data-entity="BukkitInventoryEventListener" data-source-line="121" data-uid="ent0021" id="entity_BukkitInventoryEventListener"><rect fill="#F0E68C" filter="url(#f1usjv9m5asf8d)" height="120.0859" rx="7.5" ry="7.5" style="stroke:#888888;stroke-width:0.5;" width="420.7002" x="881.65" y="1286.09"/><ellipse cx="997.0919" cy="1305.1564" fill="#ADD1B2" rx="11" ry="11" style="stroke:#181818;stroke-width:1;"/><path d="M1000.065,1310.7995 Q999.484,1311.0983 998.8448,1311.2477 Q998.2057,1311.3971 997.5001,1311.3971 Q994.9933,1311.3971 993.6734,1309.7453 Q992.3536,1308.0934 992.3536,1304.9723 Q992.3536,1301.8429 993.6734,1300.1911 Q994.9933,1298.5392 997.5001,1298.5392 Q998.2057,1298.5392 998.8531,1298.6886 Q999.5006,1298.838 1000.065,1299.1369 L1000.065,1301.8595 Q999.4342,1301.2785 998.8407,1301.0087 Q998.2472,1300.7389 997.6163,1300.7389 Q996.2716,1300.7389 995.5868,1301.8056 Q994.902,1302.8722 994.902,1304.9723 Q994.902,1307.0641 995.5868,1308.1308 Q996.2716,1309.1974 997.6163,1309.1974 Q998.2472,1309.1974 998.8407,1308.9276 Q999.4342,1308.6579 1000.065,1308.0768 Z " fill="#000000"/><text fill="#000000" font-family="sans-serif" font-size="12" font-style="italic" lengthAdjust="spacing" textLength="55.8457" x="1080.3272" y="1302.6916">&#171;listener&#187;</text><text fill="#000000" font-family="Helvetica" font-size="14" lengthAdjust="spacing" textLength="181.3164" x="1017.5919" y="1316.0031">BukkitInventoryEventListener</text><line style="stroke:#888888;stroke-width:0.5;" x1="882.65" x2="1301.3502" y1="1324.2228" y2="1324.2228"/><line style="stroke:#888888;stroke-width:0.5;" x1="882.65" x2="1301.3502" y1="1332.2228" y2="1332.2228"/><text fill="#000000" font-family="sans-serif" font-size="14" lengthAdjust="spacing" textLength="408.7002" x="887.65" y="1349.758">+init(ctx: ListenerContextContainer): InventoryEventListener</text><text fill="#000000" font-family="sans-serif" font-size="14" lengthAdjust="spacing" textLength="312.6484" x="887.65" y="1366.2463">+onInventoryClick(event: InventoryClickEvent)</text><text fill="#000000" font-family="sans-serif" font-size="14" lengthAdjust="spacing" textLength="311.7324" x="887.65" y="1382.7345">+onInventoryDrag(event: InventoryDragEvent)</text><text fill="#000000" font-family="sans-serif" font-size="14" lengthAdjust="spacing" textLength="378.0684" x="887.65" y="1399.2228">+onInventoryMoveItem(event: InventoryMoveItemEvent)</text></g><!--class BukkitPlayerEventListener--><g class="entity" data-entity="BukkitPlayerEventListener" data-source-line="128" data-uid="ent0022" id="entity_BukkitPlayerEventListener"><rect fill="#F0E68C" filter="url(#f1usjv9m5asf8d)" height="169.5508" rx="7.5" ry="7.5" style="stroke:#888888;stroke-width:0.5;" width="397.7246" x="1337.14" y="1261.36"/><ellipse cx="1450.0458" cy="1280.4264" fill="#ADD1B2" rx="11" ry="11" style="stroke:#181818;stroke-width:1;"/><path d="M1453.0189,1286.0695 Q1452.4379,1286.3683 1451.7987,1286.5177 Q1451.1595,1286.6671 1450.454,1286.6671 Q1447.9471,1286.6671 1446.6273,1285.0153 Q1445.3075,1283.3634 1445.3075,1280.2423 Q1445.3075,1277.1129 1446.6273,1275.4611 Q1447.9471,1273.8092 1450.454,1273.8092 Q1451.1595,1273.8092 1451.807,1273.9586 Q1452.4545,1274.108 1453.0189,1274.4069 L1453.0189,1277.1295 Q1452.388,1276.5485 1451.7945,1276.2787 Q1451.201,1276.0089 1450.5702,1276.0089 Q1449.2254,1276.0089 1448.5406,1277.0756 Q1447.8558,1278.1422 1447.8558,1280.2423 Q1447.8558,1282.3341 1448.5406,1283.4008 Q1449.2254,1284.4674 1450.5702,1284.4674 Q1451.201,1284.4674 1451.7945,1284.1976 Q1452.388,1283.9279 1453.0189,1283.3468 Z " fill="#000000"/><text fill="#000000" font-family="sans-serif" font-size="12" font-style="italic" lengthAdjust="spacing" textLength="55.8457" x="1524.3295" y="1277.9616">&#171;listener&#187;</text><text fill="#000000" font-family="Helvetica" font-size="14" lengthAdjust="spacing" textLength="163.4131" x="1470.5458" y="1291.2731">BukkitPlayerEventListener</text><line style="stroke:#888888;stroke-width:0.5;" x1="1338.14" x2="1733.8646" y1="1299.4928" y2="1299.4928"/><line style="stroke:#888888;stroke-width:0.5;" x1="1338.14" x2="1733.8646" y1="1307.4928" y2="1307.4928"/><text fill="#000000" font-family="sans-serif" font-size="14" lengthAdjust="spacing" textLength="385.7246" x="1343.14" y="1325.028">+init(ctx: ListenerContextContainer): PlayerEventListener</text><text fill="#000000" font-family="sans-serif" font-size="14" lengthAdjust="spacing" textLength="349.8564" x="1343.14" y="1341.5163">+onChangeWorld(event: PlayerChangedWorldEvent)</text><text fill="#000000" font-family="sans-serif" font-size="14" lengthAdjust="spacing" textLength="287.6016" x="1343.14" y="1358.0045">+onItemDrop(event: PlayerDropItemEvent)</text><text fill="#000000" font-family="sans-serif" font-size="14" lengthAdjust="spacing" textLength="280.3145" x="1343.14" y="1374.4928">+onPlayerDeath(event: PlayerDeathEvent)</text><text fill="#000000" font-family="sans-serif" font-size="14" lengthAdjust="spacing" textLength="303.6797" x="1343.14" y="1390.9811">+onPlayerInteract(event: PlayerInteractEvent)</text><text fill="#000000" font-family="sans-serif" font-size="14" lengthAdjust="spacing" textLength="251.8086" x="1343.14" y="1407.4694">+onPlayerJoin(event: PlayerJoinEvent)</text><text fill="#000000" font-family="sans-serif" font-size="14" lengthAdjust="spacing" textLength="320.0449" x="1343.14" y="1423.9577">+onPlayerRespawn(event: PlayerRespawnEvent)</text></g><!--class SqliteConnectionProvider--><g class="entity" data-entity="SqliteConnectionProvider" data-source-line="138" data-uid="ent0023" id="entity_SqliteConnectionProvider"><rect fill="#A7FFA4" filter="url(#f1usjv9m5asf8d)" height="103.5977" rx="7.5" ry="7.5" style="stroke:#888888;stroke-width:0.5;" width="313.6426" x="1770.18" y="1294.34"/><ellipse cx="1843.762" cy="1313.4064" fill="#ADD1B2" rx="11" ry="11" style="stroke:#181818;stroke-width:1;"/><path d="M1846.7352,1319.0495 Q1846.1541,1319.3483 1845.515,1319.4977 Q1844.8758,1319.6471 1844.1702,1319.6471 Q1841.6634,1319.6471 1840.3436,1317.9953 Q1839.0238,1316.3434 1839.0238,1313.2223 Q1839.0238,1310.0929 1840.3436,1308.4411 Q1841.6634,1306.7892 1844.1702,1306.7892 Q1844.8758,1306.7892 1845.5233,1306.9386 Q1846.1707,1307.088 1846.7352,1307.3869 L1846.7352,1310.1095 Q1846.1043,1309.5285 1845.5108,1309.2587 Q1844.9173,1308.9889 1844.2864,1308.9889 Q1842.9417,1308.9889 1842.2569,1310.0556 Q1841.5721,1311.1222 1841.5721,1313.2223 Q1841.5721,1315.3141 1842.2569,1316.3808 Q1842.9417,1317.4474 1844.2864,1317.4474 Q1844.9173,1317.4474 1845.5108,1317.1776 Q1846.1043,1316.9079 1846.7352,1316.3268 Z " fill="#000000"/><text fill="#000000" font-family="sans-serif" font-size="12" font-style="italic" lengthAdjust="spacing" textLength="71.7188" x="1907.3919" y="1310.9416">&#171;repository&#187;</text><text fill="#000000" font-family="Helvetica" font-size="14" lengthAdjust="spacing" textLength="157.9785" x="1864.262" y="1324.2531">SqliteConnectionProvider</text><line style="stroke:#888888;stroke-width:0.5;" x1="1771.18" x2="2082.8226" y1="1332.4728" y2="1332.4728"/><line style="stroke:#888888;stroke-width:0.5;" x1="1771.18" x2="2082.8226" y1="1340.4728" y2="1340.4728"/><text fill="#000000" font-family="sans-serif" font-size="14" lengthAdjust="spacing" textLength="54.9883" x="1776.18" y="1358.008">+close()</text><text fill="#000000" font-family="sans-serif" font-size="14" lengthAdjust="spacing" textLength="215.3525" x="1776.18" y="1374.4963">+connect(): ConnectionProvider</text><text fill="#000000" font-family="sans-serif" font-size="14" lengthAdjust="spacing" textLength="301.6426" x="1776.18" y="1390.9845">+deathLocations(): DeathLocationRepository</text></g><!--link Bootstrap to PluginController--><g class="link" data-entity-1="Bootstrap" data-entity-2="PluginController" data-source-line="163" data-uid="lnk24" id="link_Bootstrap_PluginController"><path codeLine="163" d="M1314,304.8 C1314,342.58 1314,380.57 1314,416.18" fill="none" id="Bootstrap-to-PluginController" style="stroke:#444444;stroke-width:1.2;"/><polygon fill="#444444" points="1314,422.18,1318,413.18,1314,417.18,1310,413.18,1314,422.18" style="stroke:#444444;stroke-width:1.2;"/></g><!--link EventLogic to PlayerEventListener--><g class="link" data-entity-1="EventLogic" data-entity-2="PlayerEventListener" data-source-line="165" data-uid="lnk25" id="link_EventLogic_PlayerEventListener"><path codeLine="165" d="M1345.81,918.23 C1369.31,937.79 1398.0796,961.7402 1430.3296,988.6002" fill="none" id="EventLogic-to-PlayerEventListener" style="stroke:#444444;stroke-width:1.2;"/><polygon fill="#444444" points="1434.94,992.44,1430.5843,983.6067,1431.098,989.2401,1425.4645,989.7538,1434.94,992.44" style="stroke:#444444;stroke-width:1.2;"/></g><!--link EventLogic to InventoryEventListener--><g class="link" data-entity-1="EventLogic" data-entity-2="InventoryEventListener" data-source-line="166" data-uid="lnk26" id="link_EventLogic_InventoryEventListener"><path codeLine="166" d="M1282.19,918.23 C1251.26,943.98 1207.8211,980.151 1167.7511,1013.511" fill="none" id="EventLogic-to-InventoryEventListener" style="stroke:#444444;stroke-width:1.2;"/><polygon fill="#444444" points="1163.14,1017.35,1172.616,1014.6656,1166.9826,1014.1509,1167.4974,1008.5175,1163.14,1017.35" style="stroke:#444444;stroke-width:1.2;"/></g><!--link CommandLogic to CommandDispatcher--><g class="link" data-entity-1="CommandLogic" data-entity-2="CommandDispatcher" data-source-line="167" data-uid="lnk27" id="link_CommandLogic_CommandDispatcher"><path codeLine="167" d="M1096.67,902.11 C1035.95,912.31 943.22,929.3 864,949.81 C781.29,971.22 696.1087,998.4829 622.9087,1023.4529" fill="none" id="CommandLogic-to-CommandDispatcher" style="stroke:#444444;stroke-width:1.2;"/><polygon fill="#444444" points="617.23,1025.39,627.0395,1026.2701,621.9622,1023.7757,624.4566,1018.6985,617.23,1025.39" style="stroke:#444444;stroke-width:1.2;"/></g><!--reverse link PluginController to DeathCompassPluginController--><g class="link" data-entity-1="PluginController" data-entity-2="DeathCompassPluginController" data-source-line="168" data-uid="lnk28" id="link_PluginController_DeathCompassPluginController"><path codeLine="168" d="M1314,565.49 C1314,584.42 1314,599.23 1314,618.98" fill="none" id="PluginController-backto-DeathCompassPluginController" style="stroke:#444444;stroke-width:1.2;"/><polygon fill="#444444" points="1314,559.49,1310,568.49,1314,564.49,1318,568.49,1314,559.49" style="stroke:#444444;stroke-width:1.2;"/></g><!--link DeathCompassPluginController to CommandLogic--><g class="link" data-entity-1="DeathCompassPluginController" data-entity-2="CommandLogic" data-source-line="169" data-uid="lnk29" id="link_DeathCompassPluginController_CommandLogic"><path codeLine="169" d="M1244.89,788.94 C1222.78,815.83 1203.691,839.0458 1187.581,858.6358" fill="none" id="DeathCompassPluginController-to-CommandLogic" style="stroke:#444444;stroke-width:1.2;"/><polygon fill="#444444" points="1183.77,863.27,1192.576,858.8593,1186.9458,859.4081,1186.397,853.778,1183.77,863.27" style="stroke:#444444;stroke-width:1.2;"/></g><!--link DeathCompassPluginController to EventLogic--><g class="link" data-entity-1="DeathCompassPluginController" data-entity-2="EventLogic" data-source-line="170" data-uid="lnk30" id="link_DeathCompassPluginController_EventLogic"><path codeLine="170" d="M1314,788.94 C1314,815.83 1314,837.68 1314,857.27" fill="none" id="DeathCompassPluginController-to-EventLogic" style="stroke:#444444;stroke-width:1.2;"/><polygon fill="#444444" points="1314,863.27,1318,854.27,1314,858.27,1310,854.27,1314,863.27" style="stroke:#444444;stroke-width:1.2;"/></g><!--link DeathCompassPluginController to Persistence--><g class="link" data-entity-1="DeathCompassPluginController" data-entity-2="Persistence" data-source-line="171" data-uid="lnk31" id="link_DeathCompassPluginController_Persistence"><path codeLine="171" d="M1377.65,788.94 C1398.02,815.83 1415.487,838.8973 1430.327,858.4873" fill="none" id="DeathCompassPluginController-to-Persistence" style="stroke:#444444;stroke-width:1.2;"/><polygon fill="#444444" points="1433.95,863.27,1431.7039,853.6807,1430.9308,859.2845,1425.3271,858.5113,1433.95,863.27" style="stroke:#444444;stroke-width:1.2;"/></g><!--reverse link CommandDispatcher to BukkitCommandDispatcher--><g class="link" data-entity-1="CommandDispatcher" data-entity-2="BukkitCommandDispatcher" data-source-line="172" data-uid="lnk32" id="link_CommandDispatcher_BukkitCommandDispatcher"><path codeLine="172" d="M474,1135.66 C474,1182.98 474,1246.97 474,1294.23" fill="none" id="CommandDispatcher-backto-BukkitCommandDispatcher" style="stroke:#444444;stroke-width:1.2;"/><polygon fill="#444444" points="474,1129.66,470,1138.66,474,1134.66,478,1138.66,474,1129.66" style="stroke:#444444;stroke-width:1.2;"/></g><!--reverse link ConnectionProvider to SqliteConnectionProvider--><g class="link" data-entity-1="ConnectionProvider" data-entity-2="SqliteConnectionProvider" data-source-line="173" data-uid="lnk33" id="link_ConnectionProvider_SqliteConnectionProvider"><path codeLine="173" d="M1927,1135.66 C1927,1182.98 1927,1246.97 1927,1294.23" fill="none" id="ConnectionProvider-backto-SqliteConnectionProvider" style="stroke:#444444;stroke-width:1.2;"/><polygon fill="#444444" points="1927,1129.66,1923,1138.66,1927,1134.66,1931,1138.66,1927,1129.66" style="stroke:#444444;stroke-width:1.2;"/></g><!--link Persistence to ConnectionProvider--><g class="link" data-entity-1="Persistence" data-entity-2="ConnectionProvider" data-source-line="174" data-uid="lnk34" id="link_Persistence_ConnectionProvider"><path codeLine="174" d="M1507.73,895.2 C1569.05,900.72 1671.26,914.75 1752,949.81 C1794.84,968.41 1832.7476,995.1212 1865.1776,1021.5312" fill="none" id="Persistence-to-ConnectionProvider" style="stroke:#444444;stroke-width:1.2;"/><polygon fill="#444444" points="1869.83,1025.32,1865.3772,1016.5352,1865.953,1022.1627,1860.3255,1022.7384,1869.83,1025.32" style="stroke:#444444;stroke-width:1.2;"/></g><!--reverse link PlayerEventListener to BukkitPlayerEventListener--><g class="link" data-entity-1="PlayerEventListener" data-entity-2="BukkitPlayerEventListener" data-source-line="175" data-uid="lnk35" id="link_PlayerEventListener_BukkitPlayerEventListener"><path codeLine="175" d="M1536,1168.56 C1536,1199.99 1536,1229.69 1536,1261.13" fill="none" id="PlayerEventListener-backto-BukkitPlayerEventListener" style="stroke:#444444;stroke-width:1.2;"/><polygon fill="#444444" points="1536,1162.56,1532,1171.56,1536,1167.56,1540,1171.56,1536,1162.56" style="stroke:#444444;stroke-width:1.2;"/></g><!--reverse link InventoryEventListener to BukkitInventoryEventListener--><g class="link" data-entity-1="InventoryEventListener" data-entity-2="BukkitInventoryEventListener" data-source-line="176" data-uid="lnk36" id="link_InventoryEventListener_BukkitInventoryEventListener"><path codeLine="176" d="M1092,1144.07 C1092,1188.11 1092,1241.84 1092,1285.83" fill="none" id="InventoryEventListener-backto-BukkitInventoryEventListener" style="stroke:#444444;stroke-width:1.2;"/><polygon fill="#444444" points="1092,1138.07,1088,1147.07,1092,1143.07,1096,1147.07,1092,1138.07" style="stroke:#444444;stroke-width:1.2;"/></g><!--SRC=[lLXTR-8u57tdLror3r0DL6MsrNQhjXA5jiCCRL5XTxLQxOD97B08TjOnPRfL__lQpWSXiKDWgWaQJMEVSstVZsCxTRYwkeBxmTDDPm2ZyL-3_kEzQgg5Sq83nD429iYPJpbRKhVBVCRXqFjD_JA8S8PSjY9q2e8lSQOZPd6AERJFCXqTpjagDdUgdtpdU4QSESLX2EtZp_dEEqR5YFo7eTtET0LoecYAnqJuU8t8MdPy58Qgwn4jC1nymVuB5iH11tbCHmXE9ak1-mwZsiv97W9lDO2Rd6zMCoAmQcVSnJnUuBb-Qk-rMXr2WJbcuZN08NYoapCVjoOen2uu2YsTM6MWoyi9Oo8K70NNr_3mDEx_qHdtdnvDIBa28OVnCPVG0PdEn8s_nEN88UD2eWzTnpltF1DsWQZqjJQ9NZ2LgpMXN186I3Wp3JpqlCd9vCGyya8QT0TiIfno99Q3YGJtRORcf7pSP2MUXzkuRSBwH0Q5wXbQxIMOnDhTtTrPjsj2SXoma0Z6NnKE_UfvwBGSb_hQzJpNDM67c8Tw0WxE69Nv153NzJliTBzrxcz7kd8XAGGua3Kfyssc0hHm3k0GE-gd4og3SZ4ICnc1G2QR1BddwYT16gKUmQPOI5_6nEYfGwlLaeaUfo7uw5KYP5i6amwHPkk1YeHwDcn1dEbhQvi9lea5E8GuONffd2-Wcsyga0XLoIDTVgkJA8xf1VIDxGLwe9UOumwBZOR9KeeTGHWTSlP2t6Ys-JR3UCifeTsqADLWcoqvoYTWz9QYYOyRHuOkwHb3ttij-tSXm5AzSHJR41gVcxyqJuziGNOar1RV54Ienv6Cwz8HIpiSG6UkXnnSM3GOX2hFLWiE1UBYzw0HkV42lg8N5DbgLen8qs2rIkAPUBlbdib2rVGxClbYjXGzjgA5l7WlWADAx2bDw4QQK1e0e_Ehkyf2_Q5ANO-_Hzabv8KyUiY4lLaINnCVDjujf3qL8erIfFdK8zCB6ArVbXof6LjOAyPzzo7QZY_WpynRWV2UgtnpYRfiWGYrbsQI8ztCfWs5FVnjo-ZgwMexj-cM3hdzlOgDQ2wPBL8Q2JOspBSz_H18RGbjRbZhKo6dmN3-U3DA0X4DHtnFoqAL6Fukr7yo0BAIgnICKlOOrGZrGInbZVHhCod4jBqf1Ns2VPbZGXqucu3uD4pU_lv73YitNnyZQXniZ2PA67miSFK1aKzGM3AWgepBwFswB3Xhjvkb00fdjNBF9po3wojgZN992ktwyjRIq3cSCQ1RjPMZSdgFesc1hHgha1_O2-uBl2WOI3eCHgpUDOZM1xgsYYJgl9uXEiLQqf9LHTIemzKzPRwHg-vn5coILOl57man1gfDCCTLJLk9VUL7v8XDRjAwbVwL4Rf9LIrRQSzOYiGgnumRTubzSOy4mtt557p7Ps7nx9dPYnj7bRRWJw3l90Fcw8qlLBHUjkKvdOtbB1lz5IynEibsN1G8TOoDRYgDi_L1DfLy56DCgXzVKPRpEH7bcb_mpaTe_K_J-P-hyMaMPjsxLTitFFmnUhwdZk-btp-WsqP_bQlrFiugK-XzbNbdHTvPYVTKu1sLTm_5pKLjzAzF1DwYixcmvRMrggRkhgM9TYR_vEHhqNUcvzk1_imu-j8VHX-Rwkadc-FrnvjMwrf_DpWkVA-e6vlXClxGS5nsxOp91kdDYFknHPzJSj7bMROjC37Tfal52LZ49bc_eLoBDamrM2-zc4UEBooz0gUuuAqasnAt4athicSOREPLCIkCsPH-FQnbRfUsmNCGoy8shhjcJnkdKfhJLSEfHzsENgzaEpPpPQwPYyfMIvOgiXPFzd9kIJTRITWheQGMIqlmVm00]--></g></svg>